<svg width="220" height="44" viewBox="0 0 220 44" fill="none" xmlns="http://www.w3.org/2000/svg">
<path fill-rule="evenodd" clip-rule="evenodd" d="M29.3372 0L31.3535 3.52771C31.5603 3.88505 31.6691 4.29068 31.6691 4.70362C31.6691 5.11656 31.5603 5.52218 31.3535 5.87952L19.3431 26.8703L25.0064 36.769C25.6557 37.9157 26.7332 38.7576 28.0022 39.1097C29.2711 39.4618 30.6279 39.2954 31.7743 38.6469C32.5627 38.2087 33.2127 37.5582 33.6504 36.769L39.3137 26.8703L37.7883 24.2026L31.3535 35.4351C31.2011 35.702 30.9974 35.9361 30.7543 36.1239C30.5111 36.3118 30.2333 36.4496 29.9367 36.5295C29.6401 36.6095 29.3307 36.6299 29.0262 36.5897C28.7217 36.5494 28.4281 36.4493 28.1624 36.2951C27.8102 36.0829 27.5152 35.7877 27.3033 35.4351L22.4114 26.8703L33.5627 7.38889L35.5791 10.9166C35.7858 11.274 35.8947 11.6796 35.8947 12.0925C35.8947 12.5055 35.7858 12.9111 35.5791 13.2684L27.7942 26.8528L29.3196 29.5205L37.7708 14.7602L43.3289 24.4483C43.7511 25.1824 43.9733 26.0145 43.9733 26.8615C43.9733 27.7086 43.7511 28.5407 43.3289 29.2748L37.6831 39.1208C36.824 40.6302 34.1589 43.9999 29.3021 43.9999C24.4453 43.9999 21.8153 40.6302 20.9386 39.1208L15.3104 29.2748C14.8882 28.5407 14.666 27.7086 14.666 26.8615C14.666 26.0145 14.8882 25.1824 15.3104 24.4483L29.3372 0Z" fill="#E81C1C"/>
<path fill-rule="evenodd" clip-rule="evenodd" d="M74.2075 16.9519C69.6839 16.9694 66.0369 20.1461 66.0369 25.2183C66.0369 30.2905 69.1929 33.4321 74.2426 33.4321C76.2414 33.4321 78.3454 34.4676 78.3454 36.7141C78.3454 38.9606 76.5395 40.2243 74.2426 40.2243C71.9457 40.2243 69.9995 38.8377 69.9995 36.7141H66.0194C66.0194 41.1193 69.5261 43.9977 74.225 43.9977C78.924 43.9977 82.3431 41.2071 82.3431 36.7141C82.3431 34.6255 81.6768 32.6774 78.9942 31.326C81.6592 30.0974 82.4132 27.2542 82.4132 25.2359C82.4132 20.1286 78.7312 16.9519 74.2075 16.9519ZM74.225 30.0974C71.8931 30.0974 69.9819 28.0791 69.9819 25.2359C69.9819 22.3926 71.9106 20.2865 74.225 20.2865C76.5395 20.2865 78.4331 22.4102 78.4331 25.2183C78.4331 28.0264 76.5395 30.0799 74.225 30.0974ZM171.781 26.9558C172.237 28.8864 173.991 30.5713 176.813 30.5713C178.286 30.5713 180.232 29.8517 181.144 28.8864L183.704 31.4137C182.003 33.1864 179.198 34.0464 176.743 34.0464C171.694 34.0464 168.029 30.6591 168.029 25.464C168.029 20.5147 171.816 16.9343 176.463 16.9168C181.372 16.8992 185.44 20.2865 185.002 26.9207L171.781 26.9558ZM181.197 23.8844C180.741 21.9538 178.812 20.2865 176.515 20.2865C175.445 20.2965 174.406 20.652 173.553 21.3002C172.7 21.9484 172.079 22.8547 171.781 23.8844H181.197ZM153.301 26.9558C153.757 28.8864 155.51 30.5713 158.333 30.5713C159.806 30.5713 161.752 29.8517 162.664 28.8864L165.224 31.4137C163.506 33.1864 160.718 34.0464 158.263 34.0464C153.213 34.0464 149.549 30.6591 149.549 25.464C149.549 20.5147 153.336 16.9343 157.983 16.9168C162.892 16.8992 166.96 20.2865 166.521 26.9207L153.301 26.9558ZM162.717 23.8844C162.261 21.9538 160.332 20.2865 158.035 20.2865C156.964 20.2965 155.925 20.652 155.072 21.3002C154.22 21.9484 153.598 22.8547 153.301 23.8844H162.717ZM93.9853 16.9343C92.1618 16.9343 90.3909 17.4959 88.9532 19.3739V10.1597H84.9731V33.6602H88.9532V25.3587C88.9532 22.9191 90.5838 20.9183 92.9333 20.9183C95.0548 20.9183 96.5978 22.1645 96.5978 25.1305V33.6602H100.578V24.8497C100.595 20.0584 98.5615 16.9343 93.9853 16.9343ZM139.8 16.9519C137.977 16.9519 135.82 17.7416 134.575 19.5494L134.453 17.3204H130.595V40.8385L134.575 40.3998V31.7297C135.715 33.5023 138.205 34.0639 139.888 34.0639C145.06 34.0639 148.059 30.1852 148.059 25.4465C148.059 20.6726 144.762 16.9519 139.8 16.9519ZM139.502 30.5889C136.785 30.5889 134.926 28.0791 134.926 25.5518C134.926 23.0244 136.627 20.2865 139.502 20.2865C142.378 20.2865 144.078 23.0069 144.078 25.5518C144.078 28.0966 142.22 30.5889 139.502 30.5889ZM194.645 34.0639C196.469 34.0639 198.625 33.2741 199.87 31.4664L200.01 33.6427H203.868V10.1948H199.888V19.2861C198.748 17.5135 196.223 16.987 194.522 16.987C189.367 16.987 186.387 20.8306 186.387 25.5869C186.387 30.3607 189.683 34.0815 194.645 34.0639ZM194.943 20.4269C197.661 20.4269 199.519 22.9367 199.519 25.4816C199.519 28.0264 197.819 30.7468 194.943 30.7468C192.068 30.7468 190.367 28.0264 190.367 25.4816C190.367 22.9367 192.243 20.4269 194.943 20.4269ZM110.291 30.8872C109.783 30.8872 109.415 30.7293 109.169 30.3958C108.924 30.0623 108.801 29.5533 108.801 28.8513V20.8306H112.01L112.378 17.338H108.836V12.8625L104.803 13.3013V17.3555H101.77V20.8481H104.803L104.821 28.9566C104.821 30.6415 105.207 31.9052 105.996 32.7652C106.785 33.6251 107.942 34.0639 109.467 34.0815C110.156 34.0783 110.841 33.9778 111.501 33.7831C112.15 33.6003 112.765 33.316 113.325 32.9407L111.957 30.3782C111.456 30.6906 110.882 30.8661 110.291 30.8872ZM126.72 24.9024C125.107 23.8844 123.179 23.7616 121.32 23.6387C120.233 23.5685 118.532 23.3053 118.532 21.8836C118.532 20.8657 119.584 20.269 121.495 20.269C123.056 20.269 124.371 20.6375 125.528 21.7257L127.772 19.0931C125.879 17.4433 123.968 16.9519 121.425 16.9519C118.462 16.9519 114.552 18.2682 114.552 22.024C114.556 22.7909 114.754 23.5442 115.128 24.2134C115.503 24.8826 116.04 25.4457 116.691 25.8501C118.199 26.7979 120.128 26.9207 121.846 27.1138C122.986 27.2366 124.844 27.535 124.546 29.1146C124.336 30.2378 123.021 30.5538 122.056 30.5889C121.037 30.6453 120.015 30.5507 119.023 30.308C117.971 30.0272 117.094 29.5007 116.183 28.904L114.166 31.5015L114.412 31.6946C117.024 33.8533 120.654 34.5553 123.932 33.8182C126.405 33.2566 128.526 31.4488 128.526 28.7285C128.544 27.2015 128.018 25.7273 126.72 24.9024ZM59.7599 33.6427H63.74V17.3555H59.7599V33.6427ZM59.4092 12.1254C59.4114 11.8188 59.4739 11.5156 59.5931 11.2332C59.7124 10.9508 59.8861 10.6947 60.1043 10.4796C60.3225 10.2644 60.5809 10.0944 60.8648 9.97929C61.1487 9.86418 61.4525 9.80619 61.7587 9.80867C62.3764 9.81598 62.9661 10.0672 63.3996 10.5077C63.8331 10.9482 64.0751 11.5422 64.0732 12.1605C64.0668 12.776 63.8185 13.3642 63.3821 13.7978C62.9456 14.2314 62.3561 14.4755 61.7412 14.4772C61.123 14.4763 60.5304 14.2301 60.0931 13.7927C59.6637 13.3428 59.4195 12.7475 59.4092 12.1254ZM56.4812 33.6602V10.1597H52.5361V33.6602H56.4812Z" fill="black"/>
</svg>
