<svg width="124" height="30" viewBox="0 0 124 30" fill="none" xmlns="http://www.w3.org/2000/svg">
<g id="Group 34367">
<path id="Vector" d="M51.3078 20.3677C50.3785 21.5567 49.1972 22.5238 47.8494 23.1993C46.5016 23.8748 45.0209 24.2418 43.5143 24.2736C38.2259 24.2736 34.0508 20.5072 34.0508 15.6247C34.0514 14.4415 34.2995 13.2716 34.7789 12.1904C35.2583 11.1091 35.9584 10.1406 36.8342 9.34729C37.6744 8.52237 38.6791 7.88469 39.7823 7.47601C40.8856 7.06733 42.0625 6.89688 43.236 6.97581C44.7508 6.96141 46.2474 7.30804 47.6024 7.98714C48.9574 8.66624 50.1321 9.65837 51.0295 10.8818L47.5502 13.3927C47.1074 12.6376 46.4776 12.0097 45.7218 11.5698C44.9661 11.1299 44.1098 10.893 43.236 10.8818C41.9486 10.8963 40.7181 11.4153 39.8077 12.3278C38.8973 13.2403 38.3795 14.4738 38.365 15.7642C38.4116 17.0683 38.9587 18.3041 39.8921 19.2137C40.8256 20.1234 42.0733 20.6367 43.3752 20.6467C44.2574 20.6633 45.1292 20.4543 45.9085 20.0394C46.6877 19.6245 47.3485 19.0173 47.8286 18.2752L51.3078 20.3677Z" fill="#5A5A5A"/>
<path id="Vector_2" d="M57.5701 0H53.2559V23.8542H57.5701V0Z" fill="#5A5A5A"/>
<path id="Vector_3" d="M69.1217 20.5048C70.4744 20.4966 71.7734 19.9733 72.7554 19.0407C73.7374 18.1082 74.329 16.8363 74.4102 15.4829C74.329 14.1294 73.7374 12.8575 72.7554 11.925C71.7734 10.9925 70.4744 10.4691 69.1217 10.4609C67.7691 10.4691 66.4701 10.9925 65.4881 11.925C64.5061 12.8575 63.9145 14.1294 63.8333 15.4829C63.8911 16.8446 64.4754 18.1304 65.4625 19.0678C66.4497 20.0051 67.7621 20.5206 69.1217 20.5048ZM69.1217 6.83397C70.3151 6.76762 71.5096 6.94346 72.6335 7.35096C73.7575 7.75846 74.7878 8.38922 75.6627 9.20544C77.4187 10.8341 78.4679 13.0877 78.5853 15.4829C78.5415 16.6719 78.2603 17.8401 77.7583 18.9183C77.2563 19.9965 76.5438 20.9629 75.6627 21.7603C74.7878 22.5765 73.7575 23.2073 72.6335 23.6148C71.5096 24.0223 70.3151 24.1981 69.1217 24.1318C63.8333 24.1318 59.6582 20.3653 59.6582 15.4829C59.6582 10.6004 63.8333 6.83397 69.1217 6.83397Z" fill="#5A5A5A"/>
<path id="Vector_4" d="M77.75 7.11328H82.8993L87.0744 16.0412L91.5278 7.11328H96.2596L87.0744 24.8296L77.75 7.11328Z" fill="#5A5A5A"/>
<path id="Vector_5" d="M108.645 13.1126C108.329 12.3065 107.771 11.6186 107.048 11.1438C106.325 10.6691 105.473 10.4309 104.61 10.4621C103.715 10.4543 102.836 10.6986 102.073 11.1672C101.31 11.6359 100.694 12.31 100.295 13.1126H108.645ZM111.429 21.901C109.63 23.3891 107.359 24.1811 105.027 24.133C99.7386 24.133 95.5635 20.3665 95.5635 15.4841C95.5697 14.3147 95.8066 13.1581 96.2604 12.0808C96.7142 11.0035 97.376 10.0267 98.2077 9.20666C99.048 8.38174 100.053 7.74406 101.156 7.33539C102.259 6.92671 103.436 6.75626 104.61 6.83519C105.771 6.78358 106.931 6.98083 108.011 7.41381C109.091 7.8468 110.066 8.50555 110.872 9.34616C111.692 10.1619 112.327 11.1445 112.735 12.2274C113.143 13.3104 113.315 14.4685 113.238 15.6236V16.7396H99.8777C100.224 17.835 100.911 18.791 101.837 19.4684C102.763 20.1458 103.881 20.5093 105.027 20.506C106.495 20.4851 107.896 19.8834 108.924 18.8321L111.429 21.901ZM115.326 14.5076C115.326 10.4621 118.387 7.25368 123.258 7.25368V11.1596C122.225 11.1734 121.233 11.5711 120.475 12.2756C120.137 12.6487 119.886 13.0929 119.742 13.5757C119.597 14.0585 119.562 14.5676 119.64 15.0656V23.854H115.326V14.5076Z" fill="#5A5A5A"/>
<path id="Vector_6" d="M14.2884 7.81202C14.282 6.47087 13.883 5.16109 13.1408 4.04517C12.3986 2.92925 11.3459 2.05629 10.1133 1.53459C8.88733 0.991975 7.52604 0.834825 6.20914 1.08388C4.89224 1.33294 3.68167 1.9765 2.73727 2.92957C1.80104 3.88464 1.15885 5.08965 0.887386 6.40068C0.615927 7.71171 0.726676 9.07335 1.2064 10.323C1.71141 11.5695 2.57859 12.635 3.69535 13.3813C4.81212 14.1276 6.12691 14.5201 7.46904 14.5079H14.2884V7.81202ZM16.2367 7.81202C16.2431 6.47087 16.6421 5.16109 17.3843 4.04517C18.1265 2.92925 19.1792 2.05629 20.4118 1.53459C21.6378 0.991975 22.9991 0.834825 24.316 1.08388C25.6328 1.33294 26.8434 1.9765 27.7878 2.92957C28.724 3.88464 29.3662 5.08965 29.6377 6.40068C29.9092 7.71171 29.7984 9.07335 29.3187 10.323C28.8137 11.5695 27.9465 12.635 26.8297 13.3813C25.713 14.1276 24.3982 14.5201 23.056 14.5079H16.2367V7.81202ZM16.2367 23.1569C16.2431 24.498 16.6421 25.8078 17.3843 26.9237C18.1265 28.0396 19.1792 28.9126 20.4118 29.4343C21.6378 29.9769 22.9991 30.1341 24.316 29.885C25.6328 29.6359 26.8434 28.9924 27.7878 28.0393C28.724 27.0842 29.3662 25.8792 29.6377 24.5682C29.9092 23.2572 29.7984 21.8955 29.3187 20.6459C28.8137 19.3994 27.9465 18.3338 26.8297 17.5876C25.713 16.8413 24.3982 16.4488 23.056 16.4609H16.2367V23.1569ZM7.46904 28.0393C8.10973 28.043 8.74479 27.9192 9.33743 27.6752C9.93007 27.4311 10.4685 27.0716 10.9215 26.6175C11.3746 26.1634 11.7332 25.6237 11.9767 25.0297C12.2202 24.4356 12.3437 23.7991 12.34 23.1569V18.2744H7.46904C6.82835 18.2707 6.19329 18.3945 5.60065 18.6385C5.00802 18.8826 4.46958 19.2421 4.01653 19.6962C3.56349 20.1503 3.20484 20.69 2.96136 21.2841C2.71788 21.8781 2.59441 22.5146 2.5981 23.1569C2.59441 23.7991 2.71788 24.4356 2.96136 25.0297C3.20484 25.6237 3.56349 26.1634 4.01653 26.6175C4.46958 27.0716 5.00802 27.4311 5.60065 27.6752C6.19329 27.9192 6.82835 28.043 7.46904 28.0393ZM14.2884 23.1569C14.282 24.498 13.883 25.8078 13.1408 26.9237C12.3986 28.0396 11.3459 28.9126 10.1133 29.4343C8.88733 29.9769 7.52604 30.1341 6.20914 29.885C4.89224 29.6359 3.68167 28.9924 2.73727 28.0393C1.80104 27.0842 1.15885 25.8792 0.887386 24.5682C0.615927 23.2572 0.726676 21.8955 1.2064 20.6459C1.71141 19.3994 2.57859 18.3338 3.69535 17.5876C4.81212 16.8413 6.12691 16.4488 7.46904 16.4609H14.2884V23.1569Z" fill="#228800"/>
</g>
</svg>
