<svg width="102" height="30" viewBox="0 0 102 30" fill="none" xmlns="http://www.w3.org/2000/svg">
<g id="Group 34370">
<path id="Vector" d="M41.4485 29.7349C40.2265 29.7349 39.2692 29.3886 38.5971 28.6758C37.8232 27.9222 37.3955 26.741 37.3955 25.2542C37.3955 24.4192 37.4973 23.5842 37.701 22.7695L41.5706 3.86935L47.1307 3.05469C47.1307 3.05469 43.0778 22.4436 42.9759 22.9324C42.6501 24.5414 42.8741 25.3764 43.2 25.743C45.033 27.8 49.3303 24.3988 49.3303 22.6677C49.4729 24.0526 46.9474 29.7552 41.4485 29.7349Z" fill="#1D1E46"/>
<path id="Vector_2" d="M15.0534 29.7164C12.4261 28.861 12.0595 26.1116 12.5687 23.7694C12.6909 22.9955 12.9353 22.0179 13.1797 20.8366C13.4444 19.5943 13.6481 18.637 13.7907 17.9446C13.9129 17.3336 13.974 16.7022 13.9943 16.0709C13.974 14.7878 13.5259 14.0953 12.6094 14.1157C11.978 14.1157 10.3487 14.6452 9.67663 17.6798C9.67663 17.6798 9.3304 19.7776 8.21024 24.5841C6.72348 32.3234 3.15933 29.7775 0.0839844 28.6166C0.980112 28.5555 2.03917 27.3336 2.60944 25.2969C4.52389 18.3315 7.13081 3.91202 7.13081 3.91202L12.8945 2.91406L10.7153 12.7511C11.3467 11.9975 12.1613 11.3865 13.0575 10.9792C13.7092 10.7348 14.4017 10.5923 15.1145 10.5923C16.3976 10.5719 17.3955 10.8977 18.1898 11.5698C18.9638 12.303 19.3915 13.4028 19.4118 14.8692C19.3711 16.0301 19.2285 17.1706 18.9434 18.3112C18.8416 18.7185 18.7194 19.3295 18.5564 20.1645C18.1898 21.5291 17.3548 24.8285 18.5768 26.193C20.145 27.9445 22.6908 26.1523 23.4648 23.2195C22.0188 29.6146 17.1715 30.4089 15.0534 29.7164Z" fill="#1D1E46"/>
<path id="Vector_3" d="M54.239 29.6132C50.1657 29.491 48.292 26.6194 48.292 23.6866C48.3124 22.8312 48.3735 21.9554 48.4957 21.1C48.6179 20.1224 48.8419 19.1652 49.1474 18.2487C49.9009 15.9269 50.9193 14.1143 52.2635 12.7497C53.0374 11.9351 53.9743 11.3037 54.9926 10.8557C56.0109 10.4076 57.1311 10.2039 58.2512 10.2039C59.738 10.1836 60.8785 10.5502 61.6117 11.263C62.2023 11.8944 62.5078 12.7497 62.4875 13.6051C62.4875 14.5013 62.3245 15.1937 61.9172 15.6825C61.7543 15.9066 61.5506 16.0695 61.3062 16.1917C61.0618 16.3139 60.797 16.375 60.5323 16.375C60.0639 16.375 59.5954 16.2121 59.2085 15.9269C59.4936 15.2141 59.6362 14.4605 59.6362 13.707C59.6565 13.32 59.5547 12.9127 59.351 12.5868C59.2696 12.4646 59.1474 12.3424 59.0252 12.2813C58.8826 12.2202 58.74 12.1795 58.5771 12.1795C57.8643 12.1795 57.0903 12.8312 56.296 14.155C55.4406 15.54 54.7686 17.0064 54.2798 18.5542C53.6891 20.4279 52.9356 23.7477 54.4427 25.5399C56.5608 28.0654 60.4916 26.2935 61.7135 24.2365C61.571 25.0104 59.6565 29.7762 54.239 29.6132Z" fill="#1D1E46"/>
<path id="Vector_4" d="M71.2853 28.2897C70.5114 28.6156 67.9044 29.4914 67.049 29.5117C65.827 29.5117 64.8698 29.1655 64.1977 28.4527C63.4238 27.6991 62.9961 26.5179 62.9961 25.0311C62.9961 24.1961 63.0979 23.361 63.2812 22.5464L65.7456 11.0597L71.1631 10.3672L68.3932 23.1981C67.4564 27.5362 71.2853 28.2897 71.2853 28.2897Z" fill="#1D1E46"/>
<path id="Vector_5" d="M96.8659 30.0011C95.3384 30.0011 94.1368 29.5734 93.424 28.718C92.7315 27.9033 92.3853 26.8443 92.4057 25.7852C92.4057 25.1131 92.4668 24.441 92.589 23.7893C92.7112 23.0154 92.9352 21.5897 93.2 20.4084C93.4647 19.1864 93.6684 18.2292 93.8109 17.5571C93.9331 16.9461 94.0146 16.3148 94.0146 15.7038C94.0146 14.441 93.5462 13.7689 92.6297 13.7689C91.9983 13.7689 91.4077 14.0948 90.8782 14.7873C90.3486 15.5408 89.9413 16.3962 89.7173 17.2924L87.2529 29.3901L81.815 29.4308L84.4627 16.3759C84.5442 16.0704 84.5645 15.7445 84.5442 15.4186C84.5442 15.0113 84.4627 14.604 84.2998 14.2374C84.1979 14.0744 84.0757 13.9522 83.9128 13.8708C83.7499 13.7893 83.5666 13.7486 83.3833 13.7486C82.6704 13.7486 82.0798 14.1152 81.5299 14.8076C81.0004 15.5612 80.5931 16.4166 80.369 17.3127L77.9047 29.3901L70.9189 29.4512C71.367 29.4512 71.7947 29.3086 72.1409 29.0235C72.4872 28.7384 72.7112 28.3514 72.7927 27.9033L76.1939 11.1009L81.7336 10.5103L81.3466 12.4655C81.9983 11.6916 82.813 11.0806 83.7295 10.6732C84.422 10.3881 85.1552 10.2455 85.8884 10.2455C86.927 10.2455 87.8028 10.4492 88.4342 10.938C89.1266 11.4675 89.5747 12.3229 89.8191 13.4227C90.4912 12.3025 91.4484 11.3657 92.6093 10.7343C93.3629 10.3677 94.1979 10.1641 95.0533 10.1641C96.316 10.1641 97.314 10.4696 98.0472 11.1417C98.8211 11.8545 99.2488 12.9339 99.2488 14.3799C99.2284 15.5205 99.0859 16.661 98.8211 17.7812C98.6989 18.3718 97.8639 22.3433 97.6399 23.3412C96.7641 27.3942 98.312 28.2496 99.2895 28.2903C100.552 28.331 101.917 27.109 101.917 27.109C100.43 29.0438 98.6175 30.0011 96.8659 30.0011Z" fill="#1D1E46"/>
<path id="Vector_6" d="M31.6314 27.005C29.8188 27.0253 27.1712 26.007 27.884 22.0152C29.0042 21.9541 30.104 21.6893 31.1427 21.2616C32.161 20.8339 33.0978 20.2433 33.9329 19.5101C34.7475 18.8176 35.3993 17.9622 35.8677 17.005C36.3158 16.0478 36.5398 15.0091 36.5194 13.9704C36.5194 12.8909 36.2343 12.0559 35.6844 11.4856C34.9919 10.7728 33.8718 10.4062 32.3239 10.4266C29.9207 10.447 27.9044 11.282 26.275 12.9724C25.5622 13.726 24.9309 14.561 24.4217 15.4775C23.8922 16.4347 23.4645 17.4327 23.1386 18.4714C22.8331 19.4082 22.6091 20.3655 22.4869 21.3227C22.3647 22.1781 22.3036 23.0335 22.2832 23.9092C22.2832 28.2677 26.275 29.7341 28.2099 29.8359C34.6253 30.1618 37.6599 24.9072 38.4746 22.7687C38.4746 22.7891 35.7659 27.0253 31.6314 27.005ZM28.6987 17.3512C28.9634 16.4958 29.33 15.6608 29.7577 14.8461C30.104 14.174 30.5317 13.563 31.0612 13.0335C31.55 12.5854 32.0184 12.341 32.4665 12.341C32.609 12.3207 32.772 12.3614 32.8942 12.4225C33.0164 12.504 33.1386 12.6058 33.1997 12.7484C33.3626 13.0946 33.4644 13.4816 33.4441 13.8685C33.4644 14.6425 33.3219 15.4164 33.0164 16.1292C32.7109 16.842 32.3035 17.5345 31.8147 18.1251C31.326 18.7158 30.7353 19.1842 30.0632 19.5508C29.4319 19.8767 28.7394 20.0803 28.0266 20.1618C28.1895 19.2046 28.4339 18.2677 28.6987 17.3512Z" fill="#1D1E46"/>
<path id="Vector_7" d="M70.0026 6.84316C71.8967 6.84316 73.4242 5.31567 73.4242 3.42158C73.4242 1.52749 71.8967 0 70.0026 0C68.1085 0 66.5811 1.52749 66.5811 3.42158C66.5811 5.2953 68.1085 6.84316 70.0026 6.84316Z" fill="#815AF0"/>
</g>
</svg>
