<svg width="62" height="30" viewBox="0 0 62 30" fill="none" xmlns="http://www.w3.org/2000/svg">
<g id="Group 34369">
<path id="Vector" d="M34.3476 3.06763C34.0774 1.45996 33.0979 0.494014 31.5308 0.244083C30.9566 0.163025 30.3757 0.108986 29.7948 0.0954758C28.4168 0.0414367 27.0388 0.081966 25.6338 0.0684562V20.2251C26.316 20.2251 26.9713 20.2318 27.6332 20.2251C28.9842 20.2115 30.3419 20.2723 31.6929 20.171C33.2195 20.0562 34.1112 19.2456 34.3611 17.7393C34.4692 17.0097 34.5232 16.2734 34.5165 15.5304C34.5232 12.5312 34.53 9.53206 34.5232 6.53289C34.5165 5.3778 34.5435 4.21596 34.3476 3.06763ZM30.6392 15.1251C30.6324 15.4088 30.6054 15.6858 30.5581 15.9627C30.4635 16.5639 30.1325 16.8138 29.4908 16.7463V3.49994C29.68 3.52696 29.8421 3.54047 29.9974 3.56749C30.3082 3.62153 30.4906 3.81742 30.5649 4.11464C30.6256 4.36457 30.6527 4.6145 30.6459 4.87118C30.6662 8.28916 30.6864 11.7071 30.6392 15.1251Z" fill="#0871B8"/>
<path id="Vector_2" d="M51.6539 16.8017C51.6471 15.3223 51.6944 13.843 51.5999 12.3704C51.5256 11.2626 51.1 10.3642 50.0327 9.87789C49.9044 9.81709 49.7693 9.76305 49.6004 9.6955C49.695 9.66848 49.7423 9.64822 49.7963 9.64147C50.8163 9.46584 51.3499 8.84439 51.4985 7.83791C51.6674 6.74362 51.6809 5.64932 51.6269 4.54828C51.5864 3.77146 51.5053 3.00141 51.2351 2.27188C50.8636 1.27215 50.2692 0.475077 49.1276 0.27243C48.702 0.198127 48.2765 0.150842 47.8441 0.123823C46.2973 0.0292543 44.7504 0.0832935 43.2035 0.0697837C43.163 0.0697837 43.1157 0.0765386 43.0752 0.0900484V20.2196H46.9187V11.1478C47.628 11.1005 47.8982 11.3167 47.9928 11.9651C48.0535 12.4245 48.0738 12.8906 48.0671 13.3567V19.9021C48.0671 20.0035 48.04 20.1115 48.1076 20.2196H51.6201C51.6742 20.1115 51.6539 20.0102 51.6539 19.9157C51.6539 18.8754 51.6539 17.8419 51.6539 16.8017ZM48.0063 7.18944C47.9387 7.78387 47.6077 8.00678 46.9322 7.95274V3.52829C47.628 3.50127 47.959 3.7512 48.0265 4.40642C48.1143 5.33184 48.1076 6.26402 48.0063 7.18944Z" fill="#0871B8"/>
<path id="Vector_3" d="M22.776 0.0898438H17.2235C16.5683 6.80421 15.913 13.5118 15.2578 20.2127H19.2432C19.3175 19.0035 19.385 17.8079 19.4594 16.6258H20.8509C20.9252 17.8349 20.9927 19.0238 21.0603 20.2127H24.9781C24.2418 13.4915 23.5123 6.78394 22.776 0.0898438ZM19.4256 13.0187C19.5877 10.2965 19.8579 7.60128 20.1483 4.90608C20.3375 7.60804 20.5334 10.3032 20.7495 13.0187H19.4256Z" fill="#0871B8"/>
<path id="Vector_4" d="M60.8338 6.30387H57.3009C57.2266 6.20931 57.2604 6.10798 57.2604 6.02017C57.2469 5.33117 57.2942 4.64892 57.2131 3.96668C57.2064 3.88562 57.1929 3.81132 57.1726 3.73026C57.1186 3.49384 56.9902 3.33172 56.7335 3.3047C56.4769 3.27768 56.3147 3.41278 56.1999 3.62218C56.058 3.88562 56.0243 4.17608 56.004 4.45979C55.9702 4.9529 55.9973 5.446 56.0918 5.93235C56.1729 6.31738 56.3755 6.62811 56.6457 6.8983C57.1456 7.39817 57.7265 7.7967 58.2601 8.25604C58.9694 8.87749 59.6584 9.51245 60.2123 10.2825C60.7257 10.9985 60.9216 11.8294 61.0296 12.6805C61.2053 14.099 61.2323 15.5243 61.0296 16.9428C60.7662 18.7869 59.4963 20.0028 57.6117 20.2257C56.3012 20.3878 55.0718 20.1649 54.0113 19.3138C53.194 18.6586 52.8225 17.7737 52.6671 16.7672C52.5388 15.9296 52.4442 13.795 52.5252 12.9034H56.058C56.1121 12.9912 56.0851 13.079 56.0851 13.1668C56.1121 14.1936 56.0243 15.2271 56.1391 16.2471C56.1931 16.7537 56.3688 16.9563 56.7065 16.9834C57.0443 17.0104 57.328 16.7875 57.4158 16.3079C57.6049 15.3284 57.5509 14.3152 57.2604 13.3627C57.1591 13.052 56.9159 12.8359 56.693 12.6129C56.0108 11.9239 55.2947 11.2755 54.545 10.6675C53.2278 9.59351 52.5455 8.22902 52.4442 6.5538C52.3699 5.35819 52.3699 4.16257 52.6063 2.98047C52.917 1.45386 53.8492 0.508176 55.3488 0.156922C56.5512 -0.126784 57.74 -0.0389702 58.8681 0.528441C59.8475 1.01479 60.4757 1.7781 60.6649 2.8859C60.8405 4.01397 60.8405 5.14203 60.8338 6.30387Z" fill="#0871B8"/>
<path id="Vector_5" d="M11.7722 16.1732H14.5755V20.2059H7.92871V0.0898438H14.3256V4.10225H11.7858V7.91876H14.1635V11.7623H11.7858L11.7722 16.1732Z" fill="#0871B8"/>
<path id="Vector_6" d="M41.9399 20.2194H35.3066V0.0898438H41.69V4.09549H39.1569V7.92552H41.5211V11.7555H39.1569V16.18H41.9399V20.2194Z" fill="#0871B8"/>
<path id="Vector_7" d="M4.63951 16.1732H6.96319V20.2059H0.802734V0.0898438H4.63951V16.1732Z" fill="#0871B8"/>
<path id="Vector_8" d="M12.2117 24.367C12.1982 24.1306 12.0564 24.0428 11.7862 24.0765V25.1911C11.82 25.1911 11.8537 25.1911 11.8875 25.1844C12.1374 25.1573 12.1847 25.1303 12.205 24.9006C12.2252 24.725 12.2252 24.5426 12.2117 24.367ZM12.2117 24.367C12.1982 24.1306 12.0564 24.0428 11.7862 24.0765V25.1911C11.82 25.1911 11.8537 25.1911 11.8875 25.1844C12.1374 25.1573 12.1847 25.1303 12.205 24.9006C12.2252 24.725 12.2252 24.5426 12.2117 24.367ZM12.2117 24.367C12.1982 24.1306 12.0564 24.0428 11.7862 24.0765V25.1911C11.82 25.1911 11.8537 25.1911 11.8875 25.1844C12.1374 25.1573 12.1847 25.1303 12.205 24.9006C12.2252 24.725 12.2252 24.5426 12.2117 24.367ZM12.2117 24.367C12.1982 24.1306 12.0564 24.0428 11.7862 24.0765V25.1911C11.82 25.1911 11.8537 25.1911 11.8875 25.1844C12.1374 25.1573 12.1847 25.1303 12.205 24.9006C12.2252 24.725 12.2252 24.5426 12.2117 24.367ZM12.2117 24.367C12.1982 24.1306 12.0564 24.0428 11.7862 24.0765V25.1911C11.82 25.1911 11.8537 25.1911 11.8875 25.1844C12.1374 25.1573 12.1847 25.1303 12.205 24.9006C12.2252 24.725 12.2252 24.5426 12.2117 24.367ZM23.4519 24.4143L23.4316 24.4075C23.3438 25.0898 23.256 25.772 23.1614 26.461H23.6613C23.587 25.772 23.5194 25.0965 23.4519 24.4143ZM23.4519 24.4143L23.4316 24.4075C23.3438 25.0898 23.256 25.772 23.1614 26.461H23.6613C23.587 25.772 23.5194 25.0965 23.4519 24.4143ZM12.2117 24.367C12.1982 24.1306 12.0564 24.0428 11.7862 24.0765V25.1911C11.82 25.1911 11.8537 25.1911 11.8875 25.1844C12.1374 25.1573 12.1847 25.1303 12.205 24.9006C12.2252 24.725 12.2252 24.5426 12.2117 24.367ZM12.2117 24.367C12.1982 24.1306 12.0564 24.0428 11.7862 24.0765V25.1911C11.82 25.1911 11.8537 25.1911 11.8875 25.1844C12.1374 25.1573 12.1847 25.1303 12.205 24.9006C12.2252 24.725 12.2252 24.5426 12.2117 24.367ZM23.4519 24.4143L23.4316 24.4075C23.3438 25.0898 23.256 25.772 23.1614 26.461H23.6613C23.587 25.772 23.5194 25.0965 23.4519 24.4143ZM23.4519 24.4143L23.4316 24.4075C23.3438 25.0898 23.256 25.772 23.1614 26.461H23.6613C23.587 25.772 23.5194 25.0965 23.4519 24.4143ZM12.2117 24.367C12.1982 24.1306 12.0564 24.0428 11.7862 24.0765V25.1911C11.82 25.1911 11.8537 25.1911 11.8875 25.1844C12.1374 25.1573 12.1847 25.1303 12.205 24.9006C12.2252 24.725 12.2252 24.5426 12.2117 24.367ZM12.2117 24.367C12.1982 24.1306 12.0564 24.0428 11.7862 24.0765V25.1911C11.82 25.1911 11.8537 25.1911 11.8875 25.1844C12.1374 25.1573 12.1847 25.1303 12.205 24.9006C12.2252 24.725 12.2252 24.5426 12.2117 24.367ZM23.4519 24.4143L23.4316 24.4075C23.3438 25.0898 23.256 25.772 23.1614 26.461H23.6613C23.587 25.772 23.5194 25.0965 23.4519 24.4143ZM23.4519 24.4143L23.4316 24.4075C23.3438 25.0898 23.256 25.772 23.1614 26.461H23.6613C23.587 25.772 23.5194 25.0965 23.4519 24.4143ZM12.2117 24.367C12.1982 24.1306 12.0564 24.0428 11.7862 24.0765V25.1911C11.82 25.1911 11.8537 25.1911 11.8875 25.1844C12.1374 25.1573 12.1847 25.1303 12.205 24.9006C12.2252 24.725 12.2252 24.5426 12.2117 24.367ZM12.2117 24.367C12.1982 24.1306 12.0564 24.0428 11.7862 24.0765V25.1911C11.82 25.1911 11.8537 25.1911 11.8875 25.1844C12.1374 25.1573 12.1847 25.1303 12.205 24.9006C12.2252 24.725 12.2252 24.5426 12.2117 24.367ZM23.4519 24.4143L23.4316 24.4075C23.3438 25.0898 23.256 25.772 23.1614 26.461H23.6613C23.587 25.772 23.5194 25.0965 23.4519 24.4143ZM23.4519 24.4143L23.4316 24.4075C23.3438 25.0898 23.256 25.772 23.1614 26.461H23.6613C23.587 25.772 23.5194 25.0965 23.4519 24.4143ZM12.2117 24.367C12.1982 24.1306 12.0564 24.0428 11.7862 24.0765V25.1911C11.82 25.1911 11.8537 25.1911 11.8875 25.1844C12.1374 25.1573 12.1847 25.1303 12.205 24.9006C12.2252 24.725 12.2252 24.5426 12.2117 24.367ZM12.2117 24.367C12.1982 24.1306 12.0564 24.0428 11.7862 24.0765V25.1911C11.82 25.1911 11.8537 25.1911 11.8875 25.1844C12.1374 25.1573 12.1847 25.1303 12.205 24.9006C12.2252 24.725 12.2252 24.5426 12.2117 24.367ZM23.4519 24.4143L23.4316 24.4075C23.3438 25.0898 23.256 25.772 23.1614 26.461H23.6613C23.587 25.772 23.5194 25.0965 23.4519 24.4143ZM23.4519 24.4143L23.4316 24.4075C23.3438 25.0898 23.256 25.772 23.1614 26.461H23.6613C23.587 25.772 23.5194 25.0965 23.4519 24.4143ZM12.2117 24.367C12.1982 24.1306 12.0564 24.0428 11.7862 24.0765V25.1911C11.82 25.1911 11.8537 25.1911 11.8875 25.1844C12.1374 25.1573 12.1847 25.1303 12.205 24.9006C12.2252 24.725 12.2252 24.5426 12.2117 24.367ZM12.2117 24.367C12.1982 24.1306 12.0564 24.0428 11.7862 24.0765V25.1911C11.82 25.1911 11.8537 25.1911 11.8875 25.1844C12.1374 25.1573 12.1847 25.1303 12.205 24.9006C12.2252 24.725 12.2252 24.5426 12.2117 24.367ZM23.4519 24.4143L23.4316 24.4075C23.3438 25.0898 23.256 25.772 23.1614 26.461H23.6613C23.587 25.772 23.5194 25.0965 23.4519 24.4143ZM23.4519 24.4143L23.4316 24.4075C23.3438 25.0898 23.256 25.772 23.1614 26.461H23.6613C23.587 25.772 23.5194 25.0965 23.4519 24.4143ZM12.2117 24.367C12.1982 24.1306 12.0564 24.0428 11.7862 24.0765V25.1911C11.82 25.1911 11.8537 25.1911 11.8875 25.1844C12.1374 25.1573 12.1847 25.1303 12.205 24.9006C12.2252 24.725 12.2252 24.5426 12.2117 24.367ZM12.2117 24.367C12.1982 24.1306 12.0564 24.0428 11.7862 24.0765V25.1911C11.82 25.1911 11.8537 25.1911 11.8875 25.1844C12.1374 25.1573 12.1847 25.1303 12.205 24.9006C12.2252 24.725 12.2252 24.5426 12.2117 24.367ZM23.4519 24.4143L23.4316 24.4075C23.3438 25.0898 23.256 25.772 23.1614 26.461H23.6613C23.587 25.772 23.5194 25.0965 23.4519 24.4143ZM42.244 24.4008C42.2372 24.1373 42.1156 24.0495 41.8116 24.0698V25.1911C41.8589 25.1843 41.8927 25.1844 41.9197 25.1844C42.1629 25.1573 42.2034 25.1303 42.2304 24.9074C42.244 24.7385 42.2507 24.5697 42.244 24.4008ZM42.244 24.4008C42.2372 24.1373 42.1156 24.0495 41.8116 24.0698V25.1911C41.8589 25.1843 41.8927 25.1844 41.9197 25.1844C42.1629 25.1573 42.2034 25.1303 42.2304 24.9074C42.244 24.7385 42.2507 24.5697 42.244 24.4008ZM23.4519 24.4143L23.4316 24.4075C23.3438 25.0898 23.256 25.772 23.1614 26.461H23.6613C23.587 25.772 23.5194 25.0965 23.4519 24.4143ZM12.2117 24.367C12.1982 24.1306 12.0564 24.0428 11.7862 24.0765V25.1911C11.82 25.1911 11.8537 25.1911 11.8875 25.1844C12.1374 25.1573 12.1847 25.1303 12.205 24.9006C12.2252 24.725 12.2252 24.5426 12.2117 24.367ZM12.2117 24.367C12.1982 24.1306 12.0564 24.0428 11.7862 24.0765V25.1911C11.82 25.1911 11.8537 25.1911 11.8875 25.1844C12.1374 25.1573 12.1847 25.1303 12.205 24.9006C12.2252 24.725 12.2252 24.5426 12.2117 24.367ZM23.4519 24.4143L23.4316 24.4075C23.3438 25.0898 23.256 25.772 23.1614 26.461H23.6613C23.587 25.772 23.5194 25.0965 23.4519 24.4143ZM42.244 24.4008C42.2372 24.1373 42.1156 24.0495 41.8116 24.0698V25.1911C41.8589 25.1843 41.8927 25.1844 41.9197 25.1844C42.1629 25.1573 42.2034 25.1303 42.2304 24.9074C42.244 24.7385 42.2507 24.5697 42.244 24.4008ZM42.244 24.4008C42.2372 24.1373 42.1156 24.0495 41.8116 24.0698V25.1911C41.8589 25.1843 41.8927 25.1844 41.9197 25.1844C42.1629 25.1573 42.2034 25.1303 42.2304 24.9074C42.244 24.7385 42.2507 24.5697 42.244 24.4008ZM23.4519 24.4143L23.4316 24.4075C23.3438 25.0898 23.256 25.772 23.1614 26.461H23.6613C23.587 25.772 23.5194 25.0965 23.4519 24.4143ZM12.2117 24.367C12.1982 24.1306 12.0564 24.0428 11.7862 24.0765V25.1911C11.82 25.1911 11.8537 25.1911 11.8875 25.1844C12.1374 25.1573 12.1847 25.1303 12.205 24.9006C12.2252 24.725 12.2252 24.5426 12.2117 24.367ZM12.2117 24.367C12.1982 24.1306 12.0564 24.0428 11.7862 24.0765V25.1911C11.82 25.1911 11.8537 25.1911 11.8875 25.1844C12.1374 25.1573 12.1847 25.1303 12.205 24.9006C12.2252 24.725 12.2252 24.5426 12.2117 24.367ZM23.4519 24.4143L23.4316 24.4075C23.3438 25.0898 23.256 25.772 23.1614 26.461H23.6613C23.587 25.772 23.5194 25.0965 23.4519 24.4143ZM42.244 24.4008C42.2372 24.1373 42.1156 24.0495 41.8116 24.0698V25.1911C41.8589 25.1843 41.8927 25.1844 41.9197 25.1844C42.1629 25.1573 42.2034 25.1303 42.2304 24.9074C42.244 24.7385 42.2507 24.5697 42.244 24.4008ZM42.244 24.4008C42.2372 24.1373 42.1156 24.0495 41.8116 24.0698V25.1911C41.8589 25.1843 41.8927 25.1844 41.9197 25.1844C42.1629 25.1573 42.2034 25.1303 42.2304 24.9074C42.244 24.7385 42.2507 24.5697 42.244 24.4008ZM23.4519 24.4143L23.4316 24.4075C23.3438 25.0898 23.256 25.772 23.1614 26.461H23.6613C23.587 25.772 23.5194 25.0965 23.4519 24.4143ZM12.2117 24.367C12.1982 24.1306 12.0564 24.0428 11.7862 24.0765V25.1911C11.82 25.1911 11.8537 25.1911 11.8875 25.1844C12.1374 25.1573 12.1847 25.1303 12.205 24.9006C12.2252 24.725 12.2252 24.5426 12.2117 24.367ZM12.2117 24.367C12.1982 24.1306 12.0564 24.0428 11.7862 24.0765V25.1911C11.82 25.1911 11.8537 25.1911 11.8875 25.1844C12.1374 25.1573 12.1847 25.1303 12.205 24.9006C12.2252 24.725 12.2252 24.5426 12.2117 24.367ZM23.4519 24.4143L23.4316 24.4075C23.3438 25.0898 23.256 25.772 23.1614 26.461H23.6613C23.587 25.772 23.5194 25.0965 23.4519 24.4143ZM42.244 24.4008C42.2372 24.1373 42.1156 24.0495 41.8116 24.0698V25.1911C41.8589 25.1843 41.8927 25.1844 41.9197 25.1844C42.1629 25.1573 42.2034 25.1303 42.2304 24.9074C42.244 24.7385 42.2507 24.5697 42.244 24.4008ZM42.244 24.4008C42.2372 24.1373 42.1156 24.0495 41.8116 24.0698V25.1911C41.8589 25.1843 41.8927 25.1844 41.9197 25.1844C42.1629 25.1573 42.2034 25.1303 42.2304 24.9074C42.244 24.7385 42.2507 24.5697 42.244 24.4008ZM23.4519 24.4143L23.4316 24.4075C23.3438 25.0898 23.256 25.772 23.1614 26.461H23.6613C23.587 25.772 23.5194 25.0965 23.4519 24.4143ZM12.2117 24.367C12.1982 24.1306 12.0564 24.0428 11.7862 24.0765V25.1911C11.82 25.1911 11.8537 25.1911 11.8875 25.1844C12.1374 25.1573 12.1847 25.1303 12.205 24.9006C12.2252 24.725 12.2252 24.5426 12.2117 24.367ZM12.2117 24.367C12.1982 24.1306 12.0564 24.0428 11.7862 24.0765V25.1911C11.82 25.1911 11.8537 25.1911 11.8875 25.1844C12.1374 25.1573 12.1847 25.1303 12.205 24.9006C12.2252 24.725 12.2252 24.5426 12.2117 24.367ZM23.4519 24.4143L23.4316 24.4075C23.3438 25.0898 23.256 25.772 23.1614 26.461H23.6613C23.587 25.772 23.5194 25.0965 23.4519 24.4143ZM42.244 24.4008C42.2372 24.1373 42.1156 24.0495 41.8116 24.0698V25.1911C41.8589 25.1843 41.8927 25.1844 41.9197 25.1844C42.1629 25.1573 42.2034 25.1303 42.2304 24.9074C42.244 24.7385 42.2507 24.5697 42.244 24.4008ZM42.244 24.4008C42.2372 24.1373 42.1156 24.0495 41.8116 24.0698V25.1911C41.8589 25.1843 41.8927 25.1844 41.9197 25.1844C42.1629 25.1573 42.2034 25.1303 42.2304 24.9074C42.244 24.7385 42.2507 24.5697 42.244 24.4008ZM23.4519 24.4143L23.4316 24.4075C23.3438 25.0898 23.256 25.772 23.1614 26.461H23.6613C23.587 25.772 23.5194 25.0965 23.4519 24.4143ZM12.2117 24.367C12.1982 24.1306 12.0564 24.0428 11.7862 24.0765V25.1911C11.82 25.1911 11.8537 25.1911 11.8875 25.1844C12.1374 25.1573 12.1847 25.1303 12.205 24.9006C12.2252 24.725 12.2252 24.5426 12.2117 24.367ZM12.2117 24.367C12.1982 24.1306 12.0564 24.0428 11.7862 24.0765V25.1911C11.82 25.1911 11.8537 25.1911 11.8875 25.1844C12.1374 25.1573 12.1847 25.1303 12.205 24.9006C12.2252 24.725 12.2252 24.5426 12.2117 24.367ZM23.4519 24.4143L23.4316 24.4075C23.3438 25.0898 23.256 25.772 23.1614 26.461H23.6613C23.587 25.772 23.5194 25.0965 23.4519 24.4143ZM42.244 24.4008C42.2372 24.1373 42.1156 24.0495 41.8116 24.0698V25.1911C41.8589 25.1843 41.8927 25.1844 41.9197 25.1844C42.1629 25.1573 42.2034 25.1303 42.2304 24.9074C42.244 24.7385 42.2507 24.5697 42.244 24.4008ZM42.244 24.4008C42.2372 24.1373 42.1156 24.0495 41.8116 24.0698V25.1911C41.8589 25.1843 41.8927 25.1844 41.9197 25.1844C42.1629 25.1573 42.2034 25.1303 42.2304 24.9074C42.244 24.7385 42.2507 24.5697 42.244 24.4008ZM23.4519 24.4143L23.4316 24.4075C23.3438 25.0898 23.256 25.772 23.1614 26.461H23.6613C23.587 25.772 23.5194 25.0965 23.4519 24.4143ZM12.2117 24.367C12.1982 24.1306 12.0564 24.0428 11.7862 24.0765V25.1911C11.82 25.1911 11.8537 25.1911 11.8875 25.1844C12.1374 25.1573 12.1847 25.1303 12.205 24.9006C12.2252 24.725 12.2252 24.5426 12.2117 24.367ZM12.2117 24.367C12.1982 24.1306 12.0564 24.0428 11.7862 24.0765V25.1911C11.82 25.1911 11.8537 25.1911 11.8875 25.1844C12.1374 25.1573 12.1847 25.1303 12.205 24.9006C12.2252 24.725 12.2252 24.5426 12.2117 24.367ZM23.4519 24.4143L23.4316 24.4075C23.3438 25.0898 23.256 25.772 23.1614 26.461H23.6613C23.587 25.772 23.5194 25.0965 23.4519 24.4143ZM42.244 24.4008C42.2372 24.1373 42.1156 24.0495 41.8116 24.0698V25.1911C41.8589 25.1843 41.8927 25.1844 41.9197 25.1844C42.1629 25.1573 42.2034 25.1303 42.2304 24.9074C42.244 24.7385 42.2507 24.5697 42.244 24.4008ZM42.244 24.4008C42.2372 24.1373 42.1156 24.0495 41.8116 24.0698V25.1911C41.8589 25.1843 41.8927 25.1844 41.9197 25.1844C42.1629 25.1573 42.2034 25.1303 42.2304 24.9074C42.244 24.7385 42.2507 24.5697 42.244 24.4008ZM23.4519 24.4143L23.4316 24.4075C23.3438 25.0898 23.256 25.772 23.1614 26.461H23.6613C23.587 25.772 23.5194 25.0965 23.4519 24.4143ZM12.2117 24.367C12.1982 24.1306 12.0564 24.0428 11.7862 24.0765V25.1911C11.82 25.1911 11.8537 25.1911 11.8875 25.1844C12.1374 25.1573 12.1847 25.1303 12.205 24.9006C12.2252 24.725 12.2252 24.5426 12.2117 24.367ZM12.2117 24.367C12.1982 24.1306 12.0564 24.0428 11.7862 24.0765V25.1911C11.82 25.1911 11.8537 25.1911 11.8875 25.1844C12.1374 25.1573 12.1847 25.1303 12.205 24.9006C12.2252 24.725 12.2252 24.5426 12.2117 24.367ZM23.4519 24.4143L23.4316 24.4075C23.3438 25.0898 23.256 25.772 23.1614 26.461H23.6613C23.587 25.772 23.5194 25.0965 23.4519 24.4143ZM42.244 24.4008C42.2372 24.1373 42.1156 24.0495 41.8116 24.0698V25.1911C41.8589 25.1843 41.8927 25.1844 41.9197 25.1844C42.1629 25.1573 42.2034 25.1303 42.2304 24.9074C42.244 24.7385 42.2507 24.5697 42.244 24.4008ZM42.244 24.4008C42.2372 24.1373 42.1156 24.0495 41.8116 24.0698V25.1911C41.8589 25.1843 41.8927 25.1844 41.9197 25.1844C42.1629 25.1573 42.2034 25.1303 42.2304 24.9074C42.244 24.7385 42.2507 24.5697 42.244 24.4008ZM23.4519 24.4143L23.4316 24.4075C23.3438 25.0898 23.256 25.772 23.1614 26.461H23.6613C23.587 25.772 23.5194 25.0965 23.4519 24.4143ZM12.2117 24.367C12.1982 24.1306 12.0564 24.0428 11.7862 24.0765V25.1911C11.82 25.1911 11.8537 25.1911 11.8875 25.1844C12.1374 25.1573 12.1847 25.1303 12.205 24.9006C12.2252 24.725 12.2252 24.5426 12.2117 24.367ZM12.2117 24.367C12.1982 24.1306 12.0564 24.0428 11.7862 24.0765V25.1911C11.82 25.1911 11.8537 25.1911 11.8875 25.1844C12.1374 25.1573 12.1847 25.1303 12.205 24.9006C12.2252 24.725 12.2252 24.5426 12.2117 24.367ZM23.4519 24.4143L23.4316 24.4075C23.3438 25.0898 23.256 25.772 23.1614 26.461H23.6613C23.587 25.772 23.5194 25.0965 23.4519 24.4143ZM42.244 24.4008C42.2372 24.1373 42.1156 24.0495 41.8116 24.0698V25.1911C41.8589 25.1843 41.8927 25.1844 41.9197 25.1844C42.1629 25.1573 42.2034 25.1303 42.2304 24.9074C42.244 24.7385 42.2507 24.5697 42.244 24.4008ZM42.244 24.4008C42.2372 24.1373 42.1156 24.0495 41.8116 24.0698V25.1911C41.8589 25.1843 41.8927 25.1844 41.9197 25.1844C42.1629 25.1573 42.2034 25.1303 42.2304 24.9074C42.244 24.7385 42.2507 24.5697 42.244 24.4008ZM23.4519 24.4143L23.4316 24.4075C23.3438 25.0898 23.256 25.772 23.1614 26.461H23.6613C23.587 25.772 23.5194 25.0965 23.4519 24.4143ZM12.2117 24.367C12.1982 24.1306 12.0564 24.0428 11.7862 24.0765V25.1911C11.82 25.1911 11.8537 25.1911 11.8875 25.1844C12.1374 25.1573 12.1847 25.1303 12.205 24.9006C12.2252 24.725 12.2252 24.5426 12.2117 24.367ZM12.2117 24.367C12.1982 24.1306 12.0564 24.0428 11.7862 24.0765V25.1911C11.82 25.1911 11.8537 25.1911 11.8875 25.1844C12.1374 25.1573 12.1847 25.1303 12.205 24.9006C12.2252 24.725 12.2252 24.5426 12.2117 24.367ZM23.4519 24.4143L23.4316 24.4075C23.3438 25.0898 23.256 25.772 23.1614 26.461H23.6613C23.587 25.772 23.5194 25.0965 23.4519 24.4143ZM42.244 24.4008C42.2372 24.1373 42.1156 24.0495 41.8116 24.0698V25.1911C41.8589 25.1843 41.8927 25.1844 41.9197 25.1844C42.1629 25.1573 42.2034 25.1303 42.2304 24.9074C42.244 24.7385 42.2507 24.5697 42.244 24.4008ZM42.244 24.4008C42.2372 24.1373 42.1156 24.0495 41.8116 24.0698V25.1911C41.8589 25.1843 41.8927 25.1844 41.9197 25.1844C42.1629 25.1573 42.2034 25.1303 42.2304 24.9074C42.244 24.7385 42.2507 24.5697 42.244 24.4008ZM23.4519 24.4143L23.4316 24.4075C23.3438 25.0898 23.256 25.772 23.1614 26.461H23.6613C23.587 25.772 23.5194 25.0965 23.4519 24.4143ZM12.2117 24.367C12.1982 24.1306 12.0564 24.0428 11.7862 24.0765V25.1911C11.82 25.1911 11.8537 25.1911 11.8875 25.1844C12.1374 25.1573 12.1847 25.1303 12.205 24.9006C12.2252 24.725 12.2252 24.5426 12.2117 24.367ZM12.2117 24.367C12.1982 24.1306 12.0564 24.0428 11.7862 24.0765V25.1911C11.82 25.1911 11.8537 25.1911 11.8875 25.1844C12.1374 25.1573 12.1847 25.1303 12.205 24.9006C12.2252 24.725 12.2252 24.5426 12.2117 24.367ZM23.4519 24.4143L23.4316 24.4075C23.3438 25.0898 23.256 25.772 23.1614 26.461H23.6613C23.587 25.772 23.5194 25.0965 23.4519 24.4143ZM42.244 24.4008C42.2372 24.1373 42.1156 24.0495 41.8116 24.0698V25.1911C41.8589 25.1843 41.8927 25.1844 41.9197 25.1844C42.1629 25.1573 42.2034 25.1303 42.2304 24.9074C42.244 24.7385 42.2507 24.5697 42.244 24.4008ZM42.244 24.4008C42.2372 24.1373 42.1156 24.0495 41.8116 24.0698V25.1911C41.8589 25.1843 41.8927 25.1844 41.9197 25.1844C42.1629 25.1573 42.2034 25.1303 42.2304 24.9074C42.244 24.7385 42.2507 24.5697 42.244 24.4008ZM23.4519 24.4143L23.4316 24.4075C23.3438 25.0898 23.256 25.772 23.1614 26.461H23.6613C23.587 25.772 23.5194 25.0965 23.4519 24.4143ZM12.2117 24.367C12.1982 24.1306 12.0564 24.0428 11.7862 24.0765V25.1911C11.82 25.1911 11.8537 25.1911 11.8875 25.1844C12.1374 25.1573 12.1847 25.1303 12.205 24.9006C12.2252 24.725 12.2252 24.5426 12.2117 24.367ZM0.802734 21.4219V30.0006H61.1982V21.4219H0.802734ZM6.80107 28.2781H5.55817V24.9885H5.53115L5.05156 28.2781H4.15316C3.97753 27.1906 3.80866 26.1098 3.63979 25.0222H3.62628V28.2781H2.36311V23.1917H4.23422C4.3558 23.955 4.47064 24.7183 4.59222 25.4816H4.61249C4.72057 24.7183 4.82865 23.955 4.92997 23.1917H6.80107V28.2781ZM9.90832 28.2781H7.41577V23.1917H9.81375V24.1981H8.86807V25.1708H9.75296V26.1435H8.86131V27.2649H9.91507V28.2781H9.90832ZM12.975 25.6775C13.3601 25.8058 13.5424 26.022 13.5492 26.4002C13.556 27.0217 13.5492 27.6431 13.5492 28.2713H12.2185V26.7177C12.2185 26.5826 12.2185 26.4475 12.205 26.3057C12.178 26.0287 12.1037 25.9747 11.7862 25.9814V28.2646H10.3406V23.1849C10.3474 23.1781 10.3609 23.1781 10.3677 23.1781C11.0634 23.1917 11.7592 23.1849 12.4549 23.2187C13.0831 23.2457 13.4006 23.5159 13.5087 24.0833C13.5695 24.4075 13.5762 24.7385 13.5154 25.0628C13.4546 25.3938 13.2925 25.5356 12.9345 25.5896C12.894 25.5964 12.8602 25.6032 12.7994 25.6167C12.8737 25.6504 12.921 25.6639 12.975 25.6775ZM16.0418 24.1576C16.035 23.9752 15.9134 23.9009 15.7175 23.9482C15.6297 23.9617 15.5622 24.036 15.5554 24.1238C15.5419 24.2319 15.5284 24.3467 15.5284 24.4548C15.5284 25.3127 15.5284 26.1638 15.5284 27.0149C15.5284 27.123 15.5351 27.2311 15.5554 27.3324C15.5757 27.4607 15.65 27.5148 15.7851 27.5215C15.9202 27.5283 15.9945 27.4743 16.0215 27.3459C16.0418 27.2176 16.0553 27.0825 16.0553 26.9474C16.062 26.711 16.0553 26.4813 16.0553 26.2381H17.4941C17.4941 26.6434 17.5076 27.0555 17.3995 27.4607C17.2914 27.866 16.9807 28.1025 16.5821 28.2443C16.0282 28.447 15.4203 28.4335 14.8732 28.2173C14.3801 28.0349 14.1639 27.6566 14.1234 27.1906C14.0963 26.9136 14.0828 26.6367 14.0761 26.3597C14.0761 25.6977 14.0828 25.0425 14.0963 24.3873C14.1031 23.6442 14.6367 23.2187 15.3122 23.1038C15.758 23.016 16.2241 23.0566 16.6497 23.2187C17.0955 23.3943 17.386 23.6915 17.4333 24.1509C17.4738 24.5629 17.4941 24.9749 17.5143 25.3802C17.4941 25.387 17.4738 25.387 17.4468 25.3938H16.0553V25.2789C16.0553 24.9142 16.0553 24.5359 16.0418 24.1576ZM21.3376 28.2781H19.8988V26.1503H19.4665V28.2781H18.0277V23.1917H19.4597V25.002H19.8988V23.1917H21.3376V28.2781ZM23.7829 28.2781C23.7558 27.9741 23.7356 27.6769 23.7085 27.3729H23.1884C23.1614 27.6769 23.1276 27.9741 23.1006 28.2781H21.6078C21.851 26.5826 22.0941 24.8871 22.3373 23.1917H24.4313C24.7083 24.8871 24.9852 26.5826 25.2554 28.2848L23.7829 28.2781ZM28.7342 28.2781H27.4778C27.2346 27.5351 26.9914 26.7853 26.7482 26.0355L26.728 26.0422V28.2781H25.5256V23.1917H26.728L27.5115 25.4073H27.5318V23.1849H28.7274L28.7342 28.2781ZM32.2467 24.2049H31.3956V28.2781H29.9433V24.2049H29.0989V23.1917H32.24L32.2467 24.2049ZM36.9414 27.5418C36.8873 27.812 36.7252 28.0079 36.4753 28.143C36.0835 28.3456 35.6444 28.4335 35.2054 28.3862C35.0027 28.3727 34.8001 28.3321 34.6042 28.2713C34.1111 28.116 33.8139 27.8052 33.7666 27.3189C33.7396 27.0419 33.7396 26.7582 33.7193 26.4678H35.0703V27.0014C35.0703 27.1162 35.077 27.2311 35.0905 27.3459C35.0973 27.4472 35.1783 27.5283 35.2797 27.5351C35.4013 27.5486 35.5026 27.5215 35.5499 27.4135C35.5836 27.3527 35.6039 27.2851 35.6039 27.2108C35.6039 27.0352 35.5904 26.8663 35.5566 26.6974C35.5228 26.6029 35.462 26.5151 35.381 26.461C35.1919 26.3192 34.9825 26.1976 34.7866 26.0625C34.6447 25.9679 34.4961 25.8733 34.3475 25.7855C33.9287 25.5424 33.7193 25.1844 33.699 24.7453C33.6855 24.4751 33.7058 24.2049 33.7463 23.9414C33.8139 23.5497 34.1111 23.3132 34.5029 23.1984C35.0432 23.0363 35.6174 23.0498 36.1443 23.2322C36.5496 23.374 36.8063 23.6307 36.8333 24.0428C36.8468 24.2724 36.8603 24.4954 36.8738 24.7318H35.5228V24.6169C35.5161 24.4481 35.5093 24.2859 35.5026 24.1171C35.5026 24.0225 35.4283 23.9482 35.3337 23.9482C35.2189 23.9347 35.1175 23.9752 35.0905 24.0765C35.0568 24.2252 35.0432 24.3738 35.05 24.5224C35.0568 24.6845 35.1513 24.8263 35.2932 24.9006C35.4958 25.0222 35.6985 25.1303 35.8944 25.2519C36.0903 25.3735 36.2659 25.4883 36.4415 25.6167C36.7387 25.8193 36.9211 26.1435 36.9549 26.4948C37.0089 26.8393 36.9954 27.1906 36.9414 27.5418ZM39.9338 28.2781H37.4412V23.1917H39.8325V24.2049H38.8868V25.1708H39.7717V26.1435H38.8868V27.2649H39.9338V28.2781ZM42.9937 25.6775C43.3855 25.8058 43.5747 26.022 43.5747 26.407C43.5814 27.0284 43.5747 27.6499 43.5747 28.2781H42.2372V26.5961C42.2372 26.4745 42.2304 26.3597 42.2169 26.2449C42.1967 26.076 42.1359 26.0287 41.9602 26.0084C41.913 26.0017 41.8657 26.0017 41.8049 25.9949V28.2916H40.3728V23.2052C40.3796 23.1984 40.3931 23.1984 40.3999 23.1984C41.0956 23.2119 41.7914 23.2052 42.4871 23.2389C43.1086 23.266 43.4328 23.5429 43.5409 24.1036C43.6017 24.4278 43.6017 24.7588 43.5409 25.083C43.4801 25.414 43.318 25.5559 42.96 25.6099C42.9194 25.6167 42.8789 25.6234 42.8181 25.6369C42.8924 25.6504 42.9397 25.6639 42.9937 25.6775ZM46.8575 28.2781H44.6554C44.3785 26.5826 44.1015 24.8871 43.8246 23.1917H45.3647C45.4795 24.2927 45.5944 25.4005 45.7092 26.5083C45.716 26.5556 45.7227 26.6096 45.7295 26.6704C45.7362 26.6096 45.7362 26.5961 45.743 26.5826C45.743 26.5421 45.7497 26.5083 45.7497 26.4678C45.8511 25.3802 45.9524 24.2859 46.0537 23.1984H47.5871C47.3371 24.8871 47.094 26.5826 46.8575 28.2781ZM47.837 28.2781V23.1917H49.269V28.2781H47.837ZM51.7751 24.1576C51.7683 23.9752 51.6468 23.9009 51.4509 23.9482C51.363 23.9617 51.3023 24.036 51.2955 24.1238C51.282 24.2319 51.2685 24.3467 51.2685 24.4548C51.2685 25.3127 51.2685 26.1638 51.2685 27.0149C51.2685 27.123 51.2752 27.2311 51.2955 27.3324C51.3158 27.4607 51.3901 27.5148 51.5184 27.5215C51.6468 27.5283 51.7346 27.4743 51.7548 27.3459C51.7751 27.1568 51.7886 26.9676 51.7886 26.7853C51.7954 26.6096 51.7886 26.4272 51.7886 26.2449H53.2274C53.2274 26.6569 53.2409 27.0622 53.1328 27.4675C53.0247 27.8728 52.714 28.1092 52.3155 28.2511C51.7616 28.4537 51.1536 28.4402 50.6065 28.2241C50.1134 28.0417 49.8972 27.6634 49.8567 27.1973C49.8297 26.9204 49.8094 26.6434 49.8094 26.3665C49.8094 25.7112 49.8229 25.0493 49.8229 24.394C49.8297 23.651 50.3633 23.2254 51.0388 23.1106C51.4846 23.0228 51.9507 23.0633 52.3763 23.2254C52.8221 23.4011 53.1126 23.6983 53.1598 24.1576C53.2004 24.5697 53.2139 24.9817 53.2409 25.4005H51.7819V25.2857C51.7819 24.9142 51.7818 24.5359 51.7751 24.1576ZM56.2536 28.2781H53.761V23.1849H56.159V24.1981H55.2066V25.1641H56.0915V26.1368H55.2066V27.2513H56.2536V28.2781ZM59.8134 27.5351C59.7594 27.8052 59.5973 28.0011 59.3473 28.1362C58.9555 28.3456 58.5165 28.4267 58.0774 28.3794C57.8612 28.3591 57.6383 28.3186 57.4357 28.2511C56.9493 28.0957 56.6791 27.7647 56.6386 27.2919C56.6183 27.0217 56.6116 26.7447 56.5981 26.461H57.9491V26.8258C57.9558 26.9947 57.9558 27.1635 57.9693 27.3324C57.9693 27.4337 58.0504 27.5148 58.1585 27.5215C58.2733 27.5351 58.3814 27.508 58.4287 27.4C58.4624 27.3324 58.4827 27.2649 58.4895 27.1906C58.4895 27.0217 58.4759 26.8528 58.4422 26.6839C58.4084 26.5894 58.3476 26.5016 58.2665 26.4475C58.0774 26.3057 57.868 26.1841 57.6721 26.049C57.5303 25.9544 57.3817 25.8598 57.233 25.772C56.8142 25.5288 56.5981 25.1708 56.5846 24.7318C56.5711 24.4616 56.5913 24.1846 56.6386 23.9144C56.7062 23.5294 56.9966 23.2997 57.3816 23.1849C57.9423 23.0093 58.5435 23.0295 59.0906 23.2389C59.4689 23.3808 59.6918 23.6307 59.7188 24.0158C59.7323 24.2454 59.7459 24.4818 59.7661 24.7183H58.4151V24.3265C58.4151 24.2522 58.4084 24.1779 58.3949 24.1036C58.3881 24.0158 58.3138 23.9482 58.226 23.9482C58.1314 23.9279 58.0436 23.9685 57.9896 24.0495C57.8477 24.2589 57.9288 24.7048 58.1314 24.8601C58.226 24.9344 58.3341 24.9885 58.4422 25.056C58.6989 25.2114 58.9555 25.3667 59.2122 25.5288C59.5973 25.772 59.8067 26.1098 59.8472 26.5353C59.8742 26.8731 59.8607 27.2041 59.8134 27.5351ZM41.8116 24.0698V25.1911C41.8589 25.1843 41.8927 25.1844 41.9197 25.1844C42.1629 25.1573 42.2034 25.1303 42.2304 24.9074C42.244 24.7385 42.2507 24.5697 42.244 24.4008C42.2304 24.1373 42.1156 24.0495 41.8116 24.0698ZM23.4248 24.4075C23.337 25.0898 23.2492 25.772 23.1546 26.461H23.6545C23.5802 25.772 23.5127 25.0965 23.4451 24.4143L23.4248 24.4075ZM11.7862 24.0765V25.1911C11.82 25.1911 11.8537 25.1911 11.8875 25.1844C12.1374 25.1573 12.1847 25.1303 12.205 24.9006C12.2252 24.7183 12.2252 24.5426 12.2117 24.3603C12.1982 24.1238 12.0564 24.036 11.7862 24.0765ZM12.2117 24.367C12.1982 24.1306 12.0564 24.0428 11.7862 24.0765V25.1911C11.82 25.1911 11.8537 25.1911 11.8875 25.1844C12.1374 25.1573 12.1847 25.1303 12.205 24.9006C12.2252 24.725 12.2252 24.5426 12.2117 24.367ZM23.4519 24.4143L23.4316 24.4075C23.3438 25.0898 23.256 25.772 23.1614 26.461H23.6613C23.587 25.772 23.5194 25.0965 23.4519 24.4143ZM42.244 24.4008C42.2372 24.1373 42.1156 24.0495 41.8116 24.0698V25.1911C41.8589 25.1843 41.8927 25.1844 41.9197 25.1844C42.1629 25.1573 42.2034 25.1303 42.2304 24.9074C42.244 24.7385 42.2507 24.5697 42.244 24.4008ZM42.244 24.4008C42.2372 24.1373 42.1156 24.0495 41.8116 24.0698V25.1911C41.8589 25.1843 41.8927 25.1844 41.9197 25.1844C42.1629 25.1573 42.2034 25.1303 42.2304 24.9074C42.244 24.7385 42.2507 24.5697 42.244 24.4008ZM23.4519 24.4143L23.4316 24.4075C23.3438 25.0898 23.256 25.772 23.1614 26.461H23.6613C23.587 25.772 23.5194 25.0965 23.4519 24.4143ZM12.2117 24.367C12.1982 24.1306 12.0564 24.0428 11.7862 24.0765V25.1911C11.82 25.1911 11.8537 25.1911 11.8875 25.1844C12.1374 25.1573 12.1847 25.1303 12.205 24.9006C12.2252 24.725 12.2252 24.5426 12.2117 24.367ZM12.2117 24.367C12.1982 24.1306 12.0564 24.0428 11.7862 24.0765V25.1911C11.82 25.1911 11.8537 25.1911 11.8875 25.1844C12.1374 25.1573 12.1847 25.1303 12.205 24.9006C12.2252 24.725 12.2252 24.5426 12.2117 24.367ZM23.4519 24.4143L23.4316 24.4075C23.3438 25.0898 23.256 25.772 23.1614 26.461H23.6613C23.587 25.772 23.5194 25.0965 23.4519 24.4143ZM42.244 24.4008C42.2372 24.1373 42.1156 24.0495 41.8116 24.0698V25.1911C41.8589 25.1843 41.8927 25.1844 41.9197 25.1844C42.1629 25.1573 42.2034 25.1303 42.2304 24.9074C42.244 24.7385 42.2507 24.5697 42.244 24.4008ZM42.244 24.4008C42.2372 24.1373 42.1156 24.0495 41.8116 24.0698V25.1911C41.8589 25.1843 41.8927 25.1844 41.9197 25.1844C42.1629 25.1573 42.2034 25.1303 42.2304 24.9074C42.244 24.7385 42.2507 24.5697 42.244 24.4008ZM23.4519 24.4143L23.4316 24.4075C23.3438 25.0898 23.256 25.772 23.1614 26.461H23.6613C23.587 25.772 23.5194 25.0965 23.4519 24.4143ZM12.2117 24.367C12.1982 24.1306 12.0564 24.0428 11.7862 24.0765V25.1911C11.82 25.1911 11.8537 25.1911 11.8875 25.1844C12.1374 25.1573 12.1847 25.1303 12.205 24.9006C12.2252 24.725 12.2252 24.5426 12.2117 24.367ZM12.2117 24.367C12.1982 24.1306 12.0564 24.0428 11.7862 24.0765V25.1911C11.82 25.1911 11.8537 25.1911 11.8875 25.1844C12.1374 25.1573 12.1847 25.1303 12.205 24.9006C12.2252 24.725 12.2252 24.5426 12.2117 24.367ZM23.4519 24.4143L23.4316 24.4075C23.3438 25.0898 23.256 25.772 23.1614 26.461H23.6613C23.587 25.772 23.5194 25.0965 23.4519 24.4143ZM42.244 24.4008C42.2372 24.1373 42.1156 24.0495 41.8116 24.0698V25.1911C41.8589 25.1843 41.8927 25.1844 41.9197 25.1844C42.1629 25.1573 42.2034 25.1303 42.2304 24.9074C42.244 24.7385 42.2507 24.5697 42.244 24.4008ZM42.244 24.4008C42.2372 24.1373 42.1156 24.0495 41.8116 24.0698V25.1911C41.8589 25.1843 41.8927 25.1844 41.9197 25.1844C42.1629 25.1573 42.2034 25.1303 42.2304 24.9074C42.244 24.7385 42.2507 24.5697 42.244 24.4008ZM23.4519 24.4143L23.4316 24.4075C23.3438 25.0898 23.256 25.772 23.1614 26.461H23.6613C23.587 25.772 23.5194 25.0965 23.4519 24.4143ZM12.2117 24.367C12.1982 24.1306 12.0564 24.0428 11.7862 24.0765V25.1911C11.82 25.1911 11.8537 25.1911 11.8875 25.1844C12.1374 25.1573 12.1847 25.1303 12.205 24.9006C12.2252 24.725 12.2252 24.5426 12.2117 24.367ZM12.2117 24.367C12.1982 24.1306 12.0564 24.0428 11.7862 24.0765V25.1911C11.82 25.1911 11.8537 25.1911 11.8875 25.1844C12.1374 25.1573 12.1847 25.1303 12.205 24.9006C12.2252 24.725 12.2252 24.5426 12.2117 24.367ZM23.4519 24.4143L23.4316 24.4075C23.3438 25.0898 23.256 25.772 23.1614 26.461H23.6613C23.587 25.772 23.5194 25.0965 23.4519 24.4143ZM42.244 24.4008C42.2372 24.1373 42.1156 24.0495 41.8116 24.0698V25.1911C41.8589 25.1843 41.8927 25.1844 41.9197 25.1844C42.1629 25.1573 42.2034 25.1303 42.2304 24.9074C42.244 24.7385 42.2507 24.5697 42.244 24.4008ZM42.244 24.4008C42.2372 24.1373 42.1156 24.0495 41.8116 24.0698V25.1911C41.8589 25.1843 41.8927 25.1844 41.9197 25.1844C42.1629 25.1573 42.2034 25.1303 42.2304 24.9074C42.244 24.7385 42.2507 24.5697 42.244 24.4008ZM23.4519 24.4143L23.4316 24.4075C23.3438 25.0898 23.256 25.772 23.1614 26.461H23.6613C23.587 25.772 23.5194 25.0965 23.4519 24.4143ZM12.2117 24.367C12.1982 24.1306 12.0564 24.0428 11.7862 24.0765V25.1911C11.82 25.1911 11.8537 25.1911 11.8875 25.1844C12.1374 25.1573 12.1847 25.1303 12.205 24.9006C12.2252 24.725 12.2252 24.5426 12.2117 24.367ZM12.2117 24.367C12.1982 24.1306 12.0564 24.0428 11.7862 24.0765V25.1911C11.82 25.1911 11.8537 25.1911 11.8875 25.1844C12.1374 25.1573 12.1847 25.1303 12.205 24.9006C12.2252 24.725 12.2252 24.5426 12.2117 24.367ZM23.4519 24.4143L23.4316 24.4075C23.3438 25.0898 23.256 25.772 23.1614 26.461H23.6613C23.587 25.772 23.5194 25.0965 23.4519 24.4143ZM42.244 24.4008C42.2372 24.1373 42.1156 24.0495 41.8116 24.0698V25.1911C41.8589 25.1843 41.8927 25.1844 41.9197 25.1844C42.1629 25.1573 42.2034 25.1303 42.2304 24.9074C42.244 24.7385 42.2507 24.5697 42.244 24.4008ZM42.244 24.4008C42.2372 24.1373 42.1156 24.0495 41.8116 24.0698V25.1911C41.8589 25.1843 41.8927 25.1844 41.9197 25.1844C42.1629 25.1573 42.2034 25.1303 42.2304 24.9074C42.244 24.7385 42.2507 24.5697 42.244 24.4008ZM23.4519 24.4143L23.4316 24.4075C23.3438 25.0898 23.256 25.772 23.1614 26.461H23.6613C23.587 25.772 23.5194 25.0965 23.4519 24.4143ZM12.2117 24.367C12.1982 24.1306 12.0564 24.0428 11.7862 24.0765V25.1911C11.82 25.1911 11.8537 25.1911 11.8875 25.1844C12.1374 25.1573 12.1847 25.1303 12.205 24.9006C12.2252 24.725 12.2252 24.5426 12.2117 24.367ZM12.2117 24.367C12.1982 24.1306 12.0564 24.0428 11.7862 24.0765V25.1911C11.82 25.1911 11.8537 25.1911 11.8875 25.1844C12.1374 25.1573 12.1847 25.1303 12.205 24.9006C12.2252 24.725 12.2252 24.5426 12.2117 24.367ZM23.4519 24.4143L23.4316 24.4075C23.3438 25.0898 23.256 25.772 23.1614 26.461H23.6613C23.587 25.772 23.5194 25.0965 23.4519 24.4143ZM42.244 24.4008C42.2372 24.1373 42.1156 24.0495 41.8116 24.0698V25.1911C41.8589 25.1843 41.8927 25.1844 41.9197 25.1844C42.1629 25.1573 42.2034 25.1303 42.2304 24.9074C42.244 24.7385 42.2507 24.5697 42.244 24.4008ZM42.244 24.4008C42.2372 24.1373 42.1156 24.0495 41.8116 24.0698V25.1911C41.8589 25.1843 41.8927 25.1844 41.9197 25.1844C42.1629 25.1573 42.2034 25.1303 42.2304 24.9074C42.244 24.7385 42.2507 24.5697 42.244 24.4008ZM23.4519 24.4143L23.4316 24.4075C23.3438 25.0898 23.256 25.772 23.1614 26.461H23.6613C23.587 25.772 23.5194 25.0965 23.4519 24.4143ZM12.2117 24.367C12.1982 24.1306 12.0564 24.0428 11.7862 24.0765V25.1911C11.82 25.1911 11.8537 25.1911 11.8875 25.1844C12.1374 25.1573 12.1847 25.1303 12.205 24.9006C12.2252 24.725 12.2252 24.5426 12.2117 24.367ZM12.2117 24.367C12.1982 24.1306 12.0564 24.0428 11.7862 24.0765V25.1911C11.82 25.1911 11.8537 25.1911 11.8875 25.1844C12.1374 25.1573 12.1847 25.1303 12.205 24.9006C12.2252 24.725 12.2252 24.5426 12.2117 24.367ZM23.4519 24.4143L23.4316 24.4075C23.3438 25.0898 23.256 25.772 23.1614 26.461H23.6613C23.587 25.772 23.5194 25.0965 23.4519 24.4143ZM42.244 24.4008C42.2372 24.1373 42.1156 24.0495 41.8116 24.0698V25.1911C41.8589 25.1843 41.8927 25.1844 41.9197 25.1844C42.1629 25.1573 42.2034 25.1303 42.2304 24.9074C42.244 24.7385 42.2507 24.5697 42.244 24.4008ZM42.244 24.4008C42.2372 24.1373 42.1156 24.0495 41.8116 24.0698V25.1911C41.8589 25.1843 41.8927 25.1844 41.9197 25.1844C42.1629 25.1573 42.2034 25.1303 42.2304 24.9074C42.244 24.7385 42.2507 24.5697 42.244 24.4008ZM23.4519 24.4143L23.4316 24.4075C23.3438 25.0898 23.256 25.772 23.1614 26.461H23.6613C23.587 25.772 23.5194 25.0965 23.4519 24.4143ZM12.2117 24.367C12.1982 24.1306 12.0564 24.0428 11.7862 24.0765V25.1911C11.82 25.1911 11.8537 25.1911 11.8875 25.1844C12.1374 25.1573 12.1847 25.1303 12.205 24.9006C12.2252 24.725 12.2252 24.5426 12.2117 24.367ZM12.2117 24.367C12.1982 24.1306 12.0564 24.0428 11.7862 24.0765V25.1911C11.82 25.1911 11.8537 25.1911 11.8875 25.1844C12.1374 25.1573 12.1847 25.1303 12.205 24.9006C12.2252 24.725 12.2252 24.5426 12.2117 24.367ZM23.4519 24.4143L23.4316 24.4075C23.3438 25.0898 23.256 25.772 23.1614 26.461H23.6613C23.587 25.772 23.5194 25.0965 23.4519 24.4143ZM42.244 24.4008C42.2372 24.1373 42.1156 24.0495 41.8116 24.0698V25.1911C41.8589 25.1843 41.8927 25.1844 41.9197 25.1844C42.1629 25.1573 42.2034 25.1303 42.2304 24.9074C42.244 24.7385 42.2507 24.5697 42.244 24.4008ZM42.244 24.4008C42.2372 24.1373 42.1156 24.0495 41.8116 24.0698V25.1911C41.8589 25.1843 41.8927 25.1844 41.9197 25.1844C42.1629 25.1573 42.2034 25.1303 42.2304 24.9074C42.244 24.7385 42.2507 24.5697 42.244 24.4008ZM23.4519 24.4143L23.4316 24.4075C23.3438 25.0898 23.256 25.772 23.1614 26.461H23.6613C23.587 25.772 23.5194 25.0965 23.4519 24.4143ZM12.2117 24.367C12.1982 24.1306 12.0564 24.0428 11.7862 24.0765V25.1911C11.82 25.1911 11.8537 25.1911 11.8875 25.1844C12.1374 25.1573 12.1847 25.1303 12.205 24.9006C12.2252 24.725 12.2252 24.5426 12.2117 24.367ZM12.2117 24.367C12.1982 24.1306 12.0564 24.0428 11.7862 24.0765V25.1911C11.82 25.1911 11.8537 25.1911 11.8875 25.1844C12.1374 25.1573 12.1847 25.1303 12.205 24.9006C12.2252 24.725 12.2252 24.5426 12.2117 24.367ZM23.4519 24.4143L23.4316 24.4075C23.3438 25.0898 23.256 25.772 23.1614 26.461H23.6613C23.587 25.772 23.5194 25.0965 23.4519 24.4143ZM42.244 24.4008C42.2372 24.1373 42.1156 24.0495 41.8116 24.0698V25.1911C41.8589 25.1843 41.8927 25.1844 41.9197 25.1844C42.1629 25.1573 42.2034 25.1303 42.2304 24.9074C42.244 24.7385 42.2507 24.5697 42.244 24.4008ZM42.244 24.4008C42.2372 24.1373 42.1156 24.0495 41.8116 24.0698V25.1911C41.8589 25.1843 41.8927 25.1844 41.9197 25.1844C42.1629 25.1573 42.2034 25.1303 42.2304 24.9074C42.244 24.7385 42.2507 24.5697 42.244 24.4008ZM23.4519 24.4143L23.4316 24.4075C23.3438 25.0898 23.256 25.772 23.1614 26.461H23.6613C23.587 25.772 23.5194 25.0965 23.4519 24.4143ZM12.2117 24.367C12.1982 24.1306 12.0564 24.0428 11.7862 24.0765V25.1911C11.82 25.1911 11.8537 25.1911 11.8875 25.1844C12.1374 25.1573 12.1847 25.1303 12.205 24.9006C12.2252 24.725 12.2252 24.5426 12.2117 24.367ZM12.2117 24.367C12.1982 24.1306 12.0564 24.0428 11.7862 24.0765V25.1911C11.82 25.1911 11.8537 25.1911 11.8875 25.1844C12.1374 25.1573 12.1847 25.1303 12.205 24.9006C12.2252 24.725 12.2252 24.5426 12.2117 24.367ZM23.4519 24.4143L23.4316 24.4075C23.3438 25.0898 23.256 25.772 23.1614 26.461H23.6613C23.587 25.772 23.5194 25.0965 23.4519 24.4143ZM42.244 24.4008C42.2372 24.1373 42.1156 24.0495 41.8116 24.0698V25.1911C41.8589 25.1843 41.8927 25.1844 41.9197 25.1844C42.1629 25.1573 42.2034 25.1303 42.2304 24.9074C42.244 24.7385 42.2507 24.5697 42.244 24.4008ZM42.244 24.4008C42.2372 24.1373 42.1156 24.0495 41.8116 24.0698V25.1911C41.8589 25.1843 41.8927 25.1844 41.9197 25.1844C42.1629 25.1573 42.2034 25.1303 42.2304 24.9074C42.244 24.7385 42.2507 24.5697 42.244 24.4008ZM23.4519 24.4143L23.4316 24.4075C23.3438 25.0898 23.256 25.772 23.1614 26.461H23.6613C23.587 25.772 23.5194 25.0965 23.4519 24.4143ZM12.2117 24.367C12.1982 24.1306 12.0564 24.0428 11.7862 24.0765V25.1911C11.82 25.1911 11.8537 25.1911 11.8875 25.1844C12.1374 25.1573 12.1847 25.1303 12.205 24.9006C12.2252 24.725 12.2252 24.5426 12.2117 24.367ZM12.2117 24.367C12.1982 24.1306 12.0564 24.0428 11.7862 24.0765V25.1911C11.82 25.1911 11.8537 25.1911 11.8875 25.1844C12.1374 25.1573 12.1847 25.1303 12.205 24.9006C12.2252 24.725 12.2252 24.5426 12.2117 24.367ZM23.4519 24.4143L23.4316 24.4075C23.3438 25.0898 23.256 25.772 23.1614 26.461H23.6613C23.587 25.772 23.5194 25.0965 23.4519 24.4143ZM23.4519 24.4143L23.4316 24.4075C23.3438 25.0898 23.256 25.772 23.1614 26.461H23.6613C23.587 25.772 23.5194 25.0965 23.4519 24.4143ZM12.2117 24.367C12.1982 24.1306 12.0564 24.0428 11.7862 24.0765V25.1911C11.82 25.1911 11.8537 25.1911 11.8875 25.1844C12.1374 25.1573 12.1847 25.1303 12.205 24.9006C12.2252 24.725 12.2252 24.5426 12.2117 24.367ZM12.2117 24.367C12.1982 24.1306 12.0564 24.0428 11.7862 24.0765V25.1911C11.82 25.1911 11.8537 25.1911 11.8875 25.1844C12.1374 25.1573 12.1847 25.1303 12.205 24.9006C12.2252 24.725 12.2252 24.5426 12.2117 24.367ZM23.4519 24.4143L23.4316 24.4075C23.3438 25.0898 23.256 25.772 23.1614 26.461H23.6613C23.587 25.772 23.5194 25.0965 23.4519 24.4143ZM23.4519 24.4143L23.4316 24.4075C23.3438 25.0898 23.256 25.772 23.1614 26.461H23.6613C23.587 25.772 23.5194 25.0965 23.4519 24.4143ZM12.2117 24.367C12.1982 24.1306 12.0564 24.0428 11.7862 24.0765V25.1911C11.82 25.1911 11.8537 25.1911 11.8875 25.1844C12.1374 25.1573 12.1847 25.1303 12.205 24.9006C12.2252 24.725 12.2252 24.5426 12.2117 24.367ZM12.2117 24.367C12.1982 24.1306 12.0564 24.0428 11.7862 24.0765V25.1911C11.82 25.1911 11.8537 25.1911 11.8875 25.1844C12.1374 25.1573 12.1847 25.1303 12.205 24.9006C12.2252 24.725 12.2252 24.5426 12.2117 24.367ZM23.4519 24.4143L23.4316 24.4075C23.3438 25.0898 23.256 25.772 23.1614 26.461H23.6613C23.587 25.772 23.5194 25.0965 23.4519 24.4143ZM23.4519 24.4143L23.4316 24.4075C23.3438 25.0898 23.256 25.772 23.1614 26.461H23.6613C23.587 25.772 23.5194 25.0965 23.4519 24.4143ZM12.2117 24.367C12.1982 24.1306 12.0564 24.0428 11.7862 24.0765V25.1911C11.82 25.1911 11.8537 25.1911 11.8875 25.1844C12.1374 25.1573 12.1847 25.1303 12.205 24.9006C12.2252 24.725 12.2252 24.5426 12.2117 24.367ZM12.2117 24.367C12.1982 24.1306 12.0564 24.0428 11.7862 24.0765V25.1911C11.82 25.1911 11.8537 25.1911 11.8875 25.1844C12.1374 25.1573 12.1847 25.1303 12.205 24.9006C12.2252 24.725 12.2252 24.5426 12.2117 24.367ZM23.4519 24.4143L23.4316 24.4075C23.3438 25.0898 23.256 25.772 23.1614 26.461H23.6613C23.587 25.772 23.5194 25.0965 23.4519 24.4143ZM23.4519 24.4143L23.4316 24.4075C23.3438 25.0898 23.256 25.772 23.1614 26.461H23.6613C23.587 25.772 23.5194 25.0965 23.4519 24.4143ZM12.2117 24.367C12.1982 24.1306 12.0564 24.0428 11.7862 24.0765V25.1911C11.82 25.1911 11.8537 25.1911 11.8875 25.1844C12.1374 25.1573 12.1847 25.1303 12.205 24.9006C12.2252 24.725 12.2252 24.5426 12.2117 24.367ZM12.2117 24.367C12.1982 24.1306 12.0564 24.0428 11.7862 24.0765V25.1911C11.82 25.1911 11.8537 25.1911 11.8875 25.1844C12.1374 25.1573 12.1847 25.1303 12.205 24.9006C12.2252 24.725 12.2252 24.5426 12.2117 24.367ZM23.4519 24.4143L23.4316 24.4075C23.3438 25.0898 23.256 25.772 23.1614 26.461H23.6613C23.587 25.772 23.5194 25.0965 23.4519 24.4143ZM23.4519 24.4143L23.4316 24.4075C23.3438 25.0898 23.256 25.772 23.1614 26.461H23.6613C23.587 25.772 23.5194 25.0965 23.4519 24.4143ZM12.2117 24.367C12.1982 24.1306 12.0564 24.0428 11.7862 24.0765V25.1911C11.82 25.1911 11.8537 25.1911 11.8875 25.1844C12.1374 25.1573 12.1847 25.1303 12.205 24.9006C12.2252 24.725 12.2252 24.5426 12.2117 24.367ZM12.2117 24.367C12.1982 24.1306 12.0564 24.0428 11.7862 24.0765V25.1911C11.82 25.1911 11.8537 25.1911 11.8875 25.1844C12.1374 25.1573 12.1847 25.1303 12.205 24.9006C12.2252 24.725 12.2252 24.5426 12.2117 24.367ZM23.4519 24.4143L23.4316 24.4075C23.3438 25.0898 23.256 25.772 23.1614 26.461H23.6613C23.587 25.772 23.5194 25.0965 23.4519 24.4143ZM23.4519 24.4143L23.4316 24.4075C23.3438 25.0898 23.256 25.772 23.1614 26.461H23.6613C23.587 25.772 23.5194 25.0965 23.4519 24.4143ZM12.2117 24.367C12.1982 24.1306 12.0564 24.0428 11.7862 24.0765V25.1911C11.82 25.1911 11.8537 25.1911 11.8875 25.1844C12.1374 25.1573 12.1847 25.1303 12.205 24.9006C12.2252 24.725 12.2252 24.5426 12.2117 24.367ZM12.2117 24.367C12.1982 24.1306 12.0564 24.0428 11.7862 24.0765V25.1911C11.82 25.1911 11.8537 25.1911 11.8875 25.1844C12.1374 25.1573 12.1847 25.1303 12.205 24.9006C12.2252 24.725 12.2252 24.5426 12.2117 24.367ZM23.4519 24.4143L23.4316 24.4075C23.3438 25.0898 23.256 25.772 23.1614 26.461H23.6613C23.587 25.772 23.5194 25.0965 23.4519 24.4143ZM23.4519 24.4143L23.4316 24.4075C23.3438 25.0898 23.256 25.772 23.1614 26.461H23.6613C23.587 25.772 23.5194 25.0965 23.4519 24.4143ZM12.2117 24.367C12.1982 24.1306 12.0564 24.0428 11.7862 24.0765V25.1911C11.82 25.1911 11.8537 25.1911 11.8875 25.1844C12.1374 25.1573 12.1847 25.1303 12.205 24.9006C12.2252 24.725 12.2252 24.5426 12.2117 24.367ZM12.2117 24.367C12.1982 24.1306 12.0564 24.0428 11.7862 24.0765V25.1911C11.82 25.1911 11.8537 25.1911 11.8875 25.1844C12.1374 25.1573 12.1847 25.1303 12.205 24.9006C12.2252 24.725 12.2252 24.5426 12.2117 24.367ZM12.2117 24.367C12.1982 24.1306 12.0564 24.0428 11.7862 24.0765V25.1911C11.82 25.1911 11.8537 25.1911 11.8875 25.1844C12.1374 25.1573 12.1847 25.1303 12.205 24.9006C12.2252 24.725 12.2252 24.5426 12.2117 24.367Z" fill="#C2272D"/>
<path id="Vector_9" d="M59.8062 27.5431C59.7521 27.8133 59.59 28.0092 59.3401 28.1443C58.9551 28.3537 58.5092 28.4347 58.0702 28.3874C57.854 28.3672 57.6311 28.3266 57.4285 28.2591C56.9421 28.1037 56.6719 27.7727 56.6314 27.2999C56.6111 27.0297 56.6044 26.7528 56.5909 26.4691H57.9418V26.8338C57.9486 27.0027 57.9486 27.1716 57.9621 27.3404C57.9621 27.4418 58.0432 27.5228 58.1512 27.5296C58.2661 27.5431 58.3741 27.5161 58.4214 27.408C58.4552 27.3404 58.4755 27.2729 58.4822 27.1986C58.4822 27.0297 58.4687 26.8608 58.4349 26.692C58.4012 26.5974 58.3404 26.5096 58.2593 26.4555C58.0702 26.3137 57.8608 26.1921 57.6649 26.057C57.523 25.9624 57.3744 25.8679 57.2258 25.7801C56.807 25.5369 56.5909 25.1789 56.5774 24.7398C56.5638 24.4696 56.5841 24.1927 56.6314 23.9225C56.6989 23.5374 56.9894 23.3078 57.3744 23.1929C57.9351 23.0173 58.5363 23.0376 59.0834 23.247C59.4617 23.3888 59.6846 23.6388 59.7116 24.0238C59.7251 24.2534 59.7386 24.4899 59.7589 24.7263H58.4079V24.3277C58.4079 24.2534 58.4012 24.1791 58.3877 24.1048C58.3809 24.017 58.3066 23.9495 58.2188 23.9495C58.1242 23.9292 58.0364 23.9697 57.9824 24.0508C57.8405 24.2602 57.9216 24.706 58.1242 24.8614C58.2188 24.9357 58.3269 24.9897 58.4349 25.0573C58.6916 25.2126 58.9483 25.368 59.205 25.5301C59.59 25.7733 59.7994 26.111 59.84 26.5366C59.8737 26.8743 59.8602 27.2053 59.8062 27.5431Z" fill="white"/>
<path id="Vector_10" d="M56.2465 27.2646V28.2778H53.7607V23.1914H56.152V24.2046H55.1995V25.1706H56.0844V26.1433H55.2063V27.2646H56.2465Z" fill="white"/>
<path id="Vector_11" d="M51.7888 26.2499H53.2275C53.2275 26.662 53.2411 27.0673 53.133 27.4726C53.0249 27.8778 52.7142 28.1143 52.3156 28.2561C51.7617 28.4588 51.1538 28.4453 50.6066 28.2291C50.1135 28.0467 49.8974 27.6684 49.8569 27.2024C49.8298 26.9254 49.8096 26.6485 49.8096 26.3715C49.8096 25.7163 49.8231 25.0543 49.8231 24.3991C49.8298 23.656 50.3635 23.2305 51.039 23.1156C51.4848 23.0278 51.9509 23.0684 52.3764 23.2305C52.8222 23.4061 53.1127 23.7033 53.16 24.1627C53.2005 24.5747 53.214 24.9868 53.2411 25.4056H51.782V25.2907C51.7752 24.9124 51.7752 24.5342 51.7617 24.1559C51.755 23.9735 51.6334 23.8992 51.4375 23.9465C51.3497 23.96 51.2889 24.0343 51.2821 24.1221C51.2686 24.2302 51.2551 24.345 51.2551 24.4531C51.2551 25.311 51.2551 26.1621 51.2551 27.0132C51.2551 27.1213 51.2619 27.2294 51.2821 27.3307C51.3024 27.459 51.3767 27.5131 51.505 27.5198C51.6334 27.5266 51.7212 27.4726 51.7415 27.3442C51.7617 27.1551 51.7752 26.9659 51.7752 26.7836C51.7887 26.6147 51.7888 26.4391 51.7888 26.2499Z" fill="white"/>
<path id="Vector_12" d="M49.2689 28.2778H47.8301V23.1914H49.2689V28.2778Z" fill="white"/>
<path id="Vector_13" d="M47.5868 23.1914C47.3436 24.8869 47.1004 26.5824 46.8572 28.2778H44.6619C44.385 26.5824 44.108 24.8869 43.8311 23.1914H45.3712C45.486 24.2925 45.6008 25.4003 45.7157 26.5081C45.7224 26.5553 45.7292 26.6094 45.7359 26.6702C45.7427 26.6094 45.7427 26.5959 45.7494 26.5824C45.7494 26.5418 45.7562 26.5081 45.7562 26.4675C45.8575 25.38 45.9588 24.2857 46.0602 23.1982L47.5868 23.1914Z" fill="white"/>
<path id="Vector_14" d="M42.9872 25.6761C42.9399 25.6626 42.8926 25.6424 42.8183 25.6221C42.8791 25.6086 42.9196 25.6018 42.9602 25.5951C43.3182 25.5343 43.4871 25.3924 43.5411 25.0682C43.6019 24.744 43.6019 24.413 43.5411 24.0887C43.433 23.5281 43.1088 23.2511 42.4873 23.2241C41.7916 23.1903 41.0958 23.1971 40.4001 23.1836C40.3866 23.1836 40.3798 23.1903 40.373 23.1903V28.2768H41.8051V25.9801C41.8659 25.9869 41.9199 25.9869 41.9604 25.9936C42.1361 26.0139 42.1969 26.0679 42.2171 26.2301C42.2306 26.3449 42.2374 26.4665 42.2374 26.5813V28.2633H43.5681C43.5681 27.6351 43.5749 27.0136 43.5681 26.3922C43.5681 26.0274 43.379 25.8045 42.9872 25.6761ZM42.2306 24.9128C42.2104 25.129 42.1631 25.1628 41.9199 25.1898C41.8861 25.1966 41.8524 25.1966 41.8118 25.1966V24.0685C42.1158 24.0482 42.2306 24.136 42.2442 24.3995C42.2509 24.5683 42.2441 24.744 42.2306 24.9128Z" fill="white"/>
<path id="Vector_15" d="M39.9272 27.2646V28.2778H37.4414V23.1914H39.8326V24.2046H38.8869V25.1706H39.7718V26.1433H38.8869V27.2646H39.9272Z" fill="white"/>
<path id="Vector_16" d="M36.9351 27.5422C36.881 27.8124 36.7189 28.0083 36.469 28.1434C36.0772 28.3461 35.6381 28.4339 35.2058 28.3866C35.0032 28.3731 34.8005 28.3326 34.6046 28.2718C34.1115 28.1164 33.8143 27.8057 33.767 27.3193C33.74 27.0424 33.74 26.7587 33.7197 26.4682H35.0707V27.0019C35.0707 27.1167 35.0775 27.2315 35.091 27.3464C35.0977 27.4477 35.1788 27.5287 35.2801 27.5355C35.395 27.549 35.503 27.522 35.5503 27.4139C35.5841 27.3531 35.6044 27.2856 35.6044 27.2113C35.6044 27.0356 35.5908 26.8668 35.5571 26.6979C35.5233 26.6033 35.4625 26.5155 35.3814 26.4615C35.1923 26.3196 34.9829 26.198 34.787 26.0629C34.6452 25.9684 34.4966 25.8738 34.3479 25.786C33.9291 25.5428 33.7197 25.1848 33.6995 24.7457C33.686 24.4755 33.7062 24.2053 33.7468 23.9419C33.8143 23.5501 34.1115 23.3137 34.5033 23.1988C35.0437 23.0367 35.6179 23.0502 36.1447 23.2326C36.55 23.3745 36.8067 23.6312 36.8337 24.0432C36.8473 24.2729 36.8608 24.4958 36.8743 24.7322H35.5233V24.6174C35.5165 24.4485 35.5098 24.2864 35.503 24.1175C35.503 24.0229 35.4287 23.9486 35.3342 23.9486C35.2193 23.9351 35.118 23.9757 35.091 24.077C35.0572 24.2256 35.0437 24.3742 35.0505 24.5228C35.0572 24.6849 35.1518 24.8268 35.2936 24.9011C35.4963 25.0227 35.6989 25.1307 35.8948 25.2523C36.0907 25.3739 36.2663 25.4888 36.442 25.6171C36.7392 25.8197 36.9216 26.144 36.9553 26.4952C37.0026 26.8397 36.9959 27.191 36.9351 27.5422Z" fill="white"/>
<path id="Vector_17" d="M32.2397 23.1914V24.2046H31.3953V28.2778H29.943V24.2046H29.0986V23.1914H32.2397Z" fill="white"/>
<path id="Vector_18" d="M28.7272 23.1914V28.2846H27.4708C27.2276 27.5416 26.9844 26.7918 26.7413 26.042L26.721 26.0487V28.2846H25.5254V23.1982H26.7278L27.5113 25.4138H27.5316V23.1914H28.7272Z" fill="white"/>
<path id="Vector_19" d="M24.431 23.1914H22.3369C22.0938 24.8869 21.8506 26.5824 21.6074 28.2846H23.1003C23.1273 27.9806 23.161 27.6834 23.1881 27.3794H23.7082C23.7352 27.6834 23.7555 27.9806 23.7825 28.2846H25.2551C24.9849 26.5824 24.7079 24.8869 24.431 23.1914ZM23.161 26.4608C23.2489 25.7718 23.3367 25.0895 23.4312 24.4073L23.4515 24.414C23.5191 25.0895 23.5866 25.7718 23.6609 26.4608H23.161Z" fill="white"/>
<path id="Vector_20" d="M21.3372 23.1903V28.2768H19.8984V26.149H19.4729V28.2768H18.0273V23.1836H19.4594V25.0007H19.8984V23.1903H21.3372Z" fill="white"/>
<path id="Vector_21" d="M17.501 26.2499C17.501 26.6552 17.5145 27.0673 17.4064 27.4726C17.2983 27.8778 16.9876 28.1143 16.5891 28.2561C16.0352 28.4588 15.4272 28.4453 14.8801 28.2291C14.387 28.0467 14.1708 27.6684 14.1303 27.2024C14.1033 26.9254 14.0898 26.6485 14.083 26.3715C14.083 25.7095 14.0898 25.0543 14.1033 24.3991C14.11 23.656 14.6437 23.2305 15.3192 23.1156C15.765 23.0278 16.2311 23.0684 16.6566 23.2305C17.1024 23.4061 17.3929 23.7033 17.4402 24.1627C17.4807 24.5747 17.501 24.9868 17.5212 25.392C17.501 25.3988 17.4807 25.3988 17.4537 25.4056H16.0622V25.2907C16.0554 24.9124 16.0554 24.5342 16.0419 24.1627C16.0352 23.9803 15.9136 23.906 15.7177 23.9533C15.6299 23.9668 15.5623 24.0411 15.5556 24.1289C15.5421 24.237 15.5286 24.3518 15.5286 24.4599C15.5286 25.3177 15.5286 26.1689 15.5286 27.02C15.5286 27.1281 15.5353 27.2361 15.5556 27.3375C15.5758 27.4658 15.6501 27.5198 15.7852 27.5266C15.9203 27.5333 15.9946 27.4793 16.0217 27.351C16.0419 27.2226 16.0554 27.0875 16.0554 26.9524C16.0622 26.716 16.0554 26.4863 16.0554 26.2432L17.501 26.2499Z" fill="white"/>
<path id="Vector_22" d="M12.9752 25.684C12.9212 25.6705 12.8739 25.6502 12.7996 25.6299C12.8604 25.6164 12.9009 25.6097 12.9347 25.6029C13.2927 25.5421 13.4548 25.407 13.5156 25.076C13.5764 24.7518 13.5764 24.4208 13.5089 24.0966C13.4008 23.5359 13.0765 23.2657 12.4551 23.2319C11.7593 23.1982 11.0636 23.2049 10.3678 23.1914C10.3543 23.1914 10.3476 23.1982 10.3408 23.1982V28.2778H11.7864V25.9947C12.1038 25.9879 12.1781 26.042 12.2052 26.3189C12.2187 26.454 12.2254 26.5891 12.2187 26.731V28.2846H13.5494C13.5494 27.6564 13.5561 27.0349 13.5494 26.4135C13.5426 26.0285 13.3603 25.8123 12.9752 25.684ZM12.2052 24.9071C12.1849 25.1368 12.1376 25.1638 11.8877 25.1909C11.8539 25.1976 11.8201 25.1976 11.7864 25.1976V24.0831C12.0566 24.0425 12.1984 24.1303 12.2119 24.3735C12.2254 24.5424 12.2254 24.7248 12.2052 24.9071Z" fill="white"/>
<path id="Vector_23" d="M9.90857 27.2646V28.2778H7.41602V23.1914H9.814V24.1979H8.86832V25.1706H9.74645V26.1433H8.86156V27.2646H9.90857Z" fill="white"/>
<path id="Vector_24" d="M6.80124 23.1914V28.2778H5.55834V24.9882H5.53132L5.05173 28.2778H4.15333C3.9777 27.1903 3.80883 26.1095 3.63995 25.022H3.62644V28.2778H2.36328V23.1914H4.23438C4.35597 23.9547 4.47081 24.718 4.59239 25.4813H4.61266C4.72074 24.718 4.82881 23.9547 4.93014 23.1914H6.80124Z" fill="white"/>
</g>
</svg>
