<svg width="128" height="30" viewBox="0 0 128 30" fill="none" xmlns="http://www.w3.org/2000/svg">
<g id="Group 34368">
<path id="Vector" d="M86.8002 16.0448C86.7241 16.1514 86.2492 16.8698 85.6374 16.5958C85.5978 15.847 85.5552 15.0738 85.5156 14.3097C85.5582 13.3508 85.6008 12.3919 85.6465 11.3904C87.1381 10.8333 87.6617 9.69786 87.2964 8.23364C87.0407 7.21082 86.2462 6.66592 85.1655 6.61722C84.0849 6.56851 83.1929 6.96729 82.7485 8.06013C82.0666 9.74353 83.0712 10.7085 84.1792 11.433V13.4482C83.3116 13.4239 83.3116 12.7237 83.0681 12.2701C82.7637 11.6887 82.1549 11.4756 81.7104 11.1164C81.3056 9.84703 79.2356 7.82878 78.0118 7.48784C77.5962 7.35069 77.1443 7.37397 76.7449 7.5531C76.3455 7.73222 76.0276 8.05424 75.8536 8.45587C75.4426 9.25342 75.4609 10.1453 76.2402 10.8151C76.5528 11.1187 76.9615 11.3039 77.3959 11.3389C77.8304 11.3739 78.2634 11.2565 78.6207 11.0068C78.9755 10.7408 79.3047 10.4422 79.6039 10.1149C79.9966 10.331 80.3101 10.5685 80.2645 11.0495C78.0971 12.5928 77.9814 13.3295 79.5826 15.5669C79.7835 15.85 79.7196 16.1423 79.7348 16.4406C79.3025 16.7876 78.8946 17.1742 78.2615 17.226C78.0108 16.867 77.7209 16.5372 77.3969 16.2427C76.4228 15.5273 75.4 15.4999 74.5172 16.3767C74.1273 16.7178 73.8883 17.1993 73.8524 17.7161C73.8164 18.2329 73.9865 18.7428 74.3254 19.1346C74.4927 19.3709 74.7065 19.5705 74.9535 19.7214C75.2006 19.8723 75.4758 19.9713 75.7623 20.0123C76.0489 20.0534 76.3408 20.0356 76.6203 19.96C76.8998 19.8845 77.1609 19.7528 77.3878 19.573C77.6106 19.4146 77.7931 19.206 77.9205 18.9642C78.3619 18.0205 79.1595 18.2975 79.8535 17.9505C80.1801 17.8044 80.4582 17.5681 80.655 17.2693C80.8519 16.9705 80.9593 16.6218 80.9646 16.264C80.971 16.1625 81.014 16.0667 81.0857 15.9945C81.1574 15.9223 81.2528 15.8785 81.3543 15.8713L81.5369 15.8378C81.7337 15.8 81.923 15.7301 82.097 15.6308L82.2158 15.5608C82.301 15.5608 82.6298 15.2138 82.8246 15.0342C82.9141 14.9487 82.9928 14.8526 83.059 14.7481L83.129 14.6385C83.2572 14.6244 83.3869 14.6452 83.5043 14.6988C83.6216 14.7524 83.7223 14.8367 83.7957 14.9429C84.0916 15.3311 84.251 15.8063 84.2492 16.2945C84.2817 19.1681 84.3162 22.0418 84.3527 24.9154C84.3684 25.4187 84.2641 25.9185 84.0483 26.3735C82.7637 28.9763 80.2645 28.2396 77.9357 28.3522C77.9357 28.7784 77.9357 28.961 77.957 29.4664C80.4319 29.4207 83.059 29.9352 84.9585 27.6399C86.9737 29.3994 88.5171 29.7708 92.1061 29.3507C92.0878 28.8697 92.0787 28.6627 92.0513 28.267C90.6936 28.3492 90.0239 28.5714 88.8793 28.4161C86.8124 28.1604 85.7561 26.9763 85.6343 24.9337C85.5856 24.127 85.5704 23.3203 85.5369 22.4984C85.4851 19.7891 85.7226 18.6932 86.3801 17.8013C87.9783 19.5334 88.9159 19.8713 90.1487 19.1803C91.3816 18.4893 91.7286 17.4451 91.2324 16.1362L90.998 15.7526L90.718 15.4208L89.89 14.6293C90.0605 13.9018 90.4288 13.5152 91.0315 13.4117C91.3938 13.7465 91.6769 14.1423 92.0635 14.3249C93.132 14.8698 94.167 14.7481 94.8854 13.7374C95.1922 13.336 95.3346 12.8328 95.2837 12.3301C95.2328 11.8274 94.9925 11.363 94.6114 11.0312C93.7377 10.188 92.6906 10.0845 91.7499 10.9186C91.4161 11.3294 91.1051 11.7582 90.8184 12.2032C90.5932 12.5076 90.3222 12.401 89.8261 12.7602C89.2355 13.1895 89.0346 13.78 88.9128 14.4284C87.8078 14.7146 87.1077 15.2412 86.8002 16.0448ZM77.4943 10.4224C76.8459 10.3371 76.4776 9.94444 76.5141 9.32648C76.5127 9.1876 76.5404 9.04995 76.5955 8.92246C76.6506 8.79497 76.7319 8.68046 76.834 8.58634C76.9362 8.49223 77.0569 8.42061 77.1885 8.37611C77.3201 8.33161 77.4595 8.31522 77.5978 8.32801C78.2067 8.3615 78.575 8.77245 78.5446 9.42998C78.5141 10.0875 78.1367 10.4041 77.4943 10.4224ZM76.4289 18.8576C76.1861 18.9648 75.9115 18.9747 75.6616 18.8852C75.4118 18.7957 75.2059 18.6136 75.0864 18.3766C75.009 18.2414 74.9649 18.0896 74.9581 17.934C74.9512 17.7783 74.9816 17.6232 75.0469 17.4817C75.2752 16.9703 75.6131 16.6476 76.2858 16.7998C76.513 16.8495 76.7168 16.974 76.8648 17.1534C77.0127 17.3328 77.0961 17.5567 77.1016 17.7891C77.1366 18.0183 77.0878 18.2525 76.9643 18.4487C76.8407 18.6449 76.6507 18.79 76.4289 18.8576ZM80.9311 14.9003C80.7261 14.9099 80.5243 14.8462 80.3619 14.7207C80.2037 14.6118 80.0622 14.4806 79.9418 14.331C79.8347 14.2077 79.7534 14.064 79.703 13.9087C79.6525 13.7533 79.6338 13.5893 79.648 13.4266C79.6622 13.2638 79.709 13.1056 79.7856 12.9613C79.8623 12.817 79.9671 12.6896 80.094 12.5867C80.5902 12.0936 81.1412 12.0297 81.6983 12.4802C81.9696 12.6673 82.1577 12.9525 82.223 13.2756C82.2883 13.5986 82.2257 13.9345 82.0483 14.2123C81.9602 14.3607 81.8504 14.4951 81.7226 14.6111C81.5492 14.7846 81.3164 14.8858 81.0712 14.8942L80.9311 14.9003ZM85.0407 10.3919C84.1275 10.4254 83.61 9.92008 83.5917 9.01903C83.5734 8.11797 84.0301 7.58829 84.9585 7.57003C85.887 7.55176 86.3558 8.01447 86.3984 8.73288C86.4136 9.86833 85.9418 10.3737 85.0407 10.4041V10.3919ZM89.8291 16.1423C89.996 16.2703 90.127 16.4393 90.2091 16.633C90.2913 16.8266 90.3219 17.0383 90.2979 17.2473C90.2848 17.5373 90.1616 17.8115 89.9535 18.0139C89.7454 18.2164 89.468 18.3319 89.1777 18.3371C88.5688 18.4071 88.1518 18.2092 87.9113 17.8409C87.7674 17.5772 87.7133 17.2738 87.7573 16.9767C87.8012 16.6795 87.9408 16.4048 88.1548 16.194C88.7515 15.6278 89.1503 15.6308 89.8291 16.1544V16.1423ZM93.0894 13.637C92.9505 13.6382 92.8127 13.6116 92.6843 13.5586C92.5559 13.5057 92.4394 13.4275 92.3418 13.3287C92.2441 13.2299 92.1673 13.1125 92.1158 12.9835C92.0644 12.8545 92.0393 12.7165 92.0422 12.5776C92.0422 11.8835 92.4714 11.5061 93.1989 11.4848C93.8078 11.5426 94.2431 11.8775 94.2218 12.5167C94.2005 13.156 93.8017 13.6643 93.0894 13.637Z" fill="url(#paint0_linear_1504_6603)"/>
<path id="Vector_2" d="M80.5386 7.31725C80.1744 7.3262 79.8124 7.25897 79.4757 7.11987C79.1391 6.98077 78.8352 6.77287 78.5836 6.50949C78.3319 6.24611 78.1381 5.93307 78.0145 5.59041C77.8909 5.24776 77.8403 4.88307 77.8658 4.5197C77.8645 4.15439 77.9385 3.79273 78.0834 3.45736C78.2283 3.122 78.4408 2.82014 78.7077 2.57069C78.9746 2.32123 79.2901 2.12955 79.6344 2.00764C79.9788 1.88573 80.3446 1.83621 80.709 1.86219C82.3041 1.89872 83.397 3.07983 83.3665 4.69626C83.3361 6.31269 82.2402 7.3416 80.5386 7.31725ZM82.1793 4.57754C82.1184 3.63082 81.6314 3.05548 80.6755 3.05548C79.7197 3.05548 79.0865 3.56689 79.0865 4.63842C79.0865 5.70995 79.7288 6.16048 80.7303 6.16048C81.7318 6.16048 82.1306 5.51208 82.1793 4.57449V4.57754Z" fill="url(#paint1_linear_1504_6603)"/>
<path id="Vector_3" d="M90.9037 9.81272C89.2751 9.83098 88.2097 8.82947 88.164 7.24044C88.1275 5.58139 89.1959 4.37897 90.7606 4.32722C91.1277 4.31003 91.4945 4.36688 91.8392 4.49437C92.1838 4.62186 92.4993 4.81738 92.7669 5.06931C93.0344 5.32123 93.2486 5.62441 93.3965 5.96079C93.5445 6.29718 93.6233 6.65989 93.6282 7.02735C93.6982 8.63769 92.5414 9.81272 90.9037 9.81272ZM89.3299 7.16129C89.3847 8.12932 90.0026 8.68335 90.8793 8.68335C91.8352 8.68335 92.5171 8.07452 92.4532 7.0517C92.3892 6.02888 91.7439 5.4718 90.7515 5.52964C89.8169 5.58748 89.336 6.20544 89.3299 7.16738V7.16129Z" fill="url(#paint2_linear_1504_6603)"/>
<path id="Vector_4" d="M73.4218 15.4165C73.081 15.423 72.7425 15.3598 72.4269 15.2311C72.1113 15.1023 71.8253 14.9106 71.5863 14.6676C71.3473 14.4246 71.1603 14.1354 71.0368 13.8177C70.9132 13.5001 70.8557 13.1605 70.8678 12.8199C70.9017 12.1586 71.1917 11.5364 71.6764 11.0853C72.1611 10.6341 72.8024 10.3894 73.4644 10.4029C73.7926 10.4068 74.1168 10.4754 74.4185 10.6047C74.7202 10.734 74.9935 10.9214 75.2228 11.1564C75.452 11.3913 75.6328 11.669 75.7546 11.9738C75.8765 12.2785 75.9372 12.6043 75.9332 12.9325C75.9361 13.2619 75.8729 13.5884 75.7474 13.8929C75.6219 14.1974 75.4366 14.4736 75.2024 14.7052C74.9682 14.9368 74.69 15.1191 74.3842 15.2413C74.0783 15.3635 73.7511 15.4231 73.4218 15.4165ZM72.6242 14.0162C72.863 14.1716 73.1427 14.252 73.4275 14.2472C73.7123 14.2423 73.9891 14.1523 74.2224 13.9888C74.3885 13.8681 74.5223 13.7082 74.6121 13.5235C74.7018 13.3387 74.7446 13.1347 74.7369 12.9295C74.7369 12.1654 74.335 11.6175 73.5192 11.584C73.1579 11.569 72.8052 11.6965 72.537 11.9391C72.2688 12.1816 72.1067 12.5198 72.0854 12.8808C72.06 13.1015 72.097 13.3249 72.1923 13.5257C72.2875 13.7264 72.4372 13.8964 72.6242 14.0162Z" fill="url(#paint3_linear_1504_6603)"/>
<path id="Vector_5" d="M87.8503 4.21531C87.2888 4.18999 86.7601 3.94385 86.3792 3.53048C85.9983 3.11712 85.7962 2.57002 85.8169 2.00832C85.8491 1.44839 86.1008 0.923743 86.5174 0.548197C86.934 0.17265 87.4818 -0.0235148 88.0421 0.00225209C88.5779 0.0470369 89.0775 0.290433 89.443 0.684675C89.8086 1.07892 90.0135 1.59554 90.0178 2.13313C89.9987 2.69409 89.7616 3.2255 89.3569 3.61435C88.9521 4.0032 88.4116 4.2188 87.8503 4.21531ZM88.8914 2.16357C88.8579 1.46647 88.4774 1.05552 87.8534 1.07682C87.7255 1.07385 87.5985 1.09777 87.4804 1.14703C87.3624 1.19629 87.2561 1.26978 87.1682 1.36276C87.0804 1.45574 87.0131 1.56613 86.9707 1.68678C86.9282 1.80742 86.9116 1.93564 86.9219 2.06312C86.9219 2.72064 87.2659 3.10421 87.9538 3.09203C88.5748 3.0829 88.8275 2.70238 88.8914 2.16357Z" fill="url(#paint4_linear_1504_6603)"/>
<path id="Vector_6" d="M96.24 7.07189C94.9797 7.03841 94.2157 6.20432 94.2857 4.89535C94.3557 3.58638 95.0893 2.99582 96.3618 3.008C97.6342 3.02017 98.377 3.836 98.3191 5.16932C98.2643 6.36566 97.4516 7.10842 96.24 7.07189ZM97.3542 5.04451C97.2659 4.43569 96.9432 3.99429 96.307 3.98212C96.1686 3.9719 96.0295 3.99138 95.8992 4.03926C95.769 4.08715 95.6504 4.16232 95.5515 4.25975C95.4527 4.35717 95.3758 4.47461 95.326 4.60418C95.2762 4.73375 95.2547 4.87246 95.2629 5.01103C95.2499 5.14917 95.267 5.28848 95.3128 5.41944C95.3586 5.55041 95.4322 5.66995 95.5284 5.76992C95.6246 5.86989 95.7412 5.94793 95.8703 5.99873C95.9995 6.04953 96.138 6.0719 96.2765 6.06429C96.9219 6.08256 97.2415 5.65638 97.3511 5.0506L97.3542 5.04451Z" fill="url(#paint5_linear_1504_6603)"/>
<path id="Vector_7" d="M13.9913 29.5652H12.4206V19.4648H12.3901L12.1405 19.9092L7.96701 27.3795C7.88931 27.5715 7.74222 27.7272 7.55499 27.8158C7.36775 27.9043 7.15406 27.9192 6.95636 27.8574C6.83806 27.8219 6.72875 27.7613 6.6358 27.6799C6.54286 27.5985 6.46844 27.4982 6.41756 27.3856L2.94726 21.2974C2.62662 20.7352 2.30597 20.1731 1.98532 19.6109C1.95488 19.5592 1.94575 19.4861 1.86356 19.4557V29.5713H0.271484V16.3081C0.767675 16.3081 1.25473 16.3081 1.73875 16.3081C1.96097 16.3081 2.06447 16.4694 2.15884 16.6399C2.85898 17.9103 3.56218 19.1787 4.26841 20.445C5.20397 22.1355 6.14054 23.823 7.07813 25.5074C7.10857 25.5652 7.14206 25.62 7.18163 25.6931C7.44038 25.2243 7.69 24.7798 7.93657 24.3202C9.33078 21.7692 10.724 19.2172 12.1161 16.6642C12.1667 16.5473 12.2526 16.4492 12.3618 16.3836C12.471 16.3181 12.598 16.2885 12.725 16.2989C13.142 16.3172 13.556 16.2989 13.9822 16.2989L13.9913 29.5652Z" fill="url(#paint6_linear_1504_6603)"/>
<path id="Vector_8" d="M48.2043 29.5654H46.6001C46.576 29.4971 46.5697 29.4238 46.5818 29.3524C46.5818 27.4224 46.5818 25.4944 46.5818 23.5685C46.5791 23.3151 46.5422 23.0632 46.4722 22.8197C46.2104 21.8425 45.5377 21.4803 44.6001 21.5686C43.5133 21.6721 42.7523 22.3204 42.1404 23.1789C42.1001 23.2533 42.0862 23.3391 42.1009 23.4224V29.5715H40.5088V16.0039H42.0887V21.7877C42.1565 21.7548 42.2143 21.7044 42.2561 21.6416C42.6124 21.2178 43.0568 20.8768 43.5583 20.6423C44.0599 20.4078 44.6065 20.2855 45.1602 20.2839C45.8643 20.256 46.554 20.4891 47.0967 20.9386C47.6395 21.3881 47.9971 22.0222 48.1008 22.7192C48.169 23.0702 48.2026 23.4271 48.2013 23.7847C48.2013 25.6659 48.2013 27.5462 48.2013 29.4254L48.2043 29.5654Z" fill="url(#paint7_linear_1504_6603)"/>
<path id="Vector_9" d="M17.5957 24.9666C17.6068 25.675 17.7797 26.3716 18.101 27.0031C18.3115 27.3743 18.6091 27.6888 18.9681 27.9194C19.3271 28.1501 19.7368 28.2901 20.1619 28.3273C21.0803 28.4193 22.0023 28.1902 22.7707 27.6789C23.3461 27.3379 23.4313 27.3562 23.827 27.9041L24.0279 28.1842C23.6366 28.5806 23.1725 28.898 22.6611 29.1187C21.6151 29.6034 20.4402 29.7358 19.3126 29.4962C18.7154 29.3871 18.1538 29.1341 17.6764 28.7591C17.1991 28.3841 16.8203 27.8984 16.5729 27.344C16.2179 26.6296 16.0208 25.8471 15.9951 25.0498C15.9693 24.2524 16.1155 23.4589 16.4237 22.7231C17.0326 21.2741 18.1741 20.5069 19.7205 20.3182C20.5151 20.1999 21.3269 20.3174 22.0553 20.6561C22.6087 20.9212 23.0859 21.3221 23.4425 21.8214C23.7992 22.3206 24.0236 22.9021 24.0949 23.5115C24.1703 23.8687 24.1867 24.2358 24.1436 24.5982C24.1432 24.6474 24.1331 24.696 24.1139 24.7413C24.0948 24.7866 24.0668 24.8276 24.0318 24.8621C23.9967 24.8966 23.9552 24.9238 23.9097 24.9423C23.8641 24.9607 23.8153 24.97 23.7661 24.9696C23.6942 24.9742 23.622 24.9742 23.55 24.9696H17.5957V24.9666ZM22.7098 23.8646C22.6672 22.6896 21.9914 21.6272 20.6398 21.5115C20.2672 21.4531 19.8865 21.4732 19.5221 21.5707C19.1577 21.6683 18.8178 21.8409 18.5242 22.0777C18.0316 22.5508 17.7248 23.1847 17.6596 23.8646H22.7098Z" fill="url(#paint8_linear_1504_6603)"/>
<path id="Vector_10" d="M55.5616 24.3043C55.5742 23.9051 55.562 23.5056 55.5251 23.1079C55.4606 22.7338 55.2781 22.3901 55.0042 22.1271C54.7303 21.8642 54.3795 21.6959 54.003 21.6468C53.3773 21.5534 52.7381 21.66 52.1765 21.9512C51.8995 22.0882 51.6286 22.2556 51.3516 22.3804C51.2965 22.4228 51.2328 22.4525 51.1649 22.4675C51.097 22.4824 51.0267 22.4821 50.9589 22.4667C50.8912 22.4513 50.8277 22.4211 50.7729 22.3783C50.7182 22.3355 50.6736 22.2811 50.6423 22.2191L50.3013 21.7746C50.5537 21.496 50.8413 21.2514 51.1567 21.0471C51.6866 20.6788 52.2917 20.4331 52.9283 20.3278C53.5649 20.2225 54.2169 20.2602 54.8371 20.4383C56.1095 20.7853 56.7853 21.6955 57.0319 22.9557C57.0882 23.2691 57.1127 23.5873 57.1049 23.9055V29.5645C56.8279 29.5645 56.557 29.5645 56.2861 29.5645C56.1491 29.5645 56.07 29.4397 56.0091 29.3179C55.8597 28.9867 55.7573 28.6363 55.7047 28.2769C55.483 28.5243 55.2349 28.7468 54.9649 28.9405C54.15 29.4816 53.1693 29.7157 52.1978 29.601C51.7106 29.5639 51.24 29.4071 50.828 29.1444C50.5229 28.9388 50.2729 28.6614 50.1001 28.3365C49.9273 28.0117 49.8369 27.6494 49.8369 27.2814C49.8369 26.9135 49.9273 26.5512 50.1001 26.2263C50.2729 25.9015 50.5229 25.6241 50.828 25.4184C51.4974 24.9966 52.2397 24.7034 53.0167 24.5539C53.7809 24.3883 54.5605 24.3047 55.3424 24.3043H55.5616ZM55.5616 25.3971C54.8082 25.3849 54.0553 25.4409 53.312 25.5645C52.809 25.6297 52.3272 25.8076 51.9026 26.0851C51.7091 26.2138 51.5572 26.396 51.4653 26.6095C51.3734 26.8229 51.3455 27.0585 51.3851 27.2875C51.3998 27.5162 51.482 27.7354 51.6212 27.9175C51.7605 28.0995 51.9505 28.2362 52.1674 28.3103C52.578 28.4606 53.0239 28.486 53.449 28.3834C54.3105 28.1947 54.9284 27.6345 55.5129 27.0227C55.5296 27.0037 55.5423 26.9815 55.5502 26.9574C55.558 26.9333 55.5609 26.9079 55.5585 26.8826L55.5616 25.3971Z" fill="url(#paint9_linear_1504_6603)"/>
<path id="Vector_11" d="M66.9314 29.5654H65.3363C65.2906 29.5045 65.315 29.4284 65.315 29.3614C65.315 27.4294 65.315 25.5015 65.315 23.5776C65.3159 23.2655 65.2592 22.9558 65.1475 22.6644C64.8188 21.8059 64.1521 21.5167 63.2298 21.5624C62.2526 21.6141 61.5281 22.1712 60.8827 22.8409C60.8127 22.914 60.834 22.9992 60.834 23.0814V29.5715H59.248V20.3295C59.4885 20.3295 59.726 20.3295 59.9634 20.3295C60.0346 20.3384 60.1022 20.3658 60.1594 20.4091C60.2166 20.4524 60.2613 20.51 60.2891 20.5761C60.4518 20.9209 60.5802 21.2808 60.6727 21.6507C60.9804 21.3003 61.3446 21.0039 61.7503 20.774C62.729 20.2484 63.8758 20.1314 64.9405 20.4482C65.9755 20.7526 66.5144 21.5563 66.7914 22.5548C66.8934 22.9452 66.9415 23.3477 66.9344 23.7511C66.9344 25.6567 66.9344 27.5623 66.9344 29.468C66.9375 29.4923 66.9344 29.5197 66.9314 29.5654Z" fill="url(#paint10_linear_1504_6603)"/>
<path id="Vector_12" d="M71.2906 17.1996V20.3137H73.9694V21.5313H71.2906V27.0655C71.2826 27.293 71.3167 27.5201 71.391 27.7352C71.4449 27.8936 71.5412 28.0342 71.6695 28.1415C71.7978 28.2489 71.9532 28.319 72.1186 28.3441C72.5043 28.4028 72.8987 28.3522 73.2571 28.1979C73.6985 28.0275 73.8415 28.0944 74.0211 28.5298C74.0851 28.685 74.149 28.8342 74.222 29.0107C73.866 29.2188 73.4829 29.3765 73.0835 29.4795C72.5247 29.6343 71.9388 29.6655 71.3667 29.5708C70.4747 29.4126 69.9146 28.8037 69.7624 27.8509C69.7172 27.5752 69.6948 27.2962 69.6954 27.0168V21.5374C69.3423 21.5374 68.9983 21.5374 68.6543 21.5374C68.3104 21.5374 68.2373 21.4309 68.2373 21.1173V20.5694C68.2373 20.5694 68.2373 20.545 68.2373 20.5176L69.7046 20.3137C69.764 20.0969 69.8007 19.8745 69.8142 19.6501C69.9177 18.9773 70.0029 18.3015 70.0973 17.6257C70.0999 17.5671 70.1144 17.5095 70.1397 17.4565C70.1651 17.4035 70.2008 17.3562 70.2449 17.3173C70.2889 17.2784 70.3402 17.2487 70.3959 17.2301C70.4517 17.2114 70.5105 17.2041 70.5691 17.2087C70.8157 17.1965 71.047 17.1996 71.2906 17.1996Z" fill="url(#paint11_linear_1504_6603)"/>
<path id="Vector_13" d="M39.008 28.1541C38.4178 28.8138 37.6369 29.2735 36.7736 29.4691C35.794 29.7395 34.7505 29.6555 33.8269 29.2317C33.3379 28.9927 32.9058 28.6517 32.5598 28.2316C32.2137 27.8115 31.9617 27.3221 31.8208 26.7964C31.3614 25.4347 31.4276 23.9504 32.0065 22.6351C32.6336 21.2378 33.763 20.5042 35.2698 20.3185C35.8793 20.2347 36.4995 20.2792 37.0908 20.449C37.6821 20.6188 38.2315 20.9103 38.7036 21.3048C38.7401 21.3322 38.7736 21.3626 38.8071 21.3931C38.8405 21.4235 38.8649 21.4448 38.9136 21.4905C38.7622 21.7061 38.5943 21.9097 38.4113 22.0993C38.354 22.1476 38.285 22.1798 38.2112 22.1926C38.1373 22.2055 38.0615 22.1985 37.9912 22.1724C37.8145 22.1109 37.6451 22.0303 37.4859 21.9319C37.1228 21.7272 36.7222 21.5978 36.308 21.5512C35.8938 21.5047 35.4744 21.542 35.075 21.661C34.72 21.7521 34.3925 21.9283 34.121 22.1744C33.8494 22.4205 33.6419 22.7291 33.5164 23.0734C33.0368 24.2544 33.0368 25.5759 33.5164 26.7568C33.7145 27.2813 34.0836 27.7238 34.5642 28.0126C35.0447 28.3015 35.6086 28.42 36.1648 28.3489C36.7077 28.3038 37.2264 28.1041 37.6594 27.7736C37.7567 27.705 37.8584 27.6429 37.9638 27.5879C38.0199 27.5479 38.0836 27.5198 38.1509 27.5053C38.2183 27.4908 38.2879 27.4903 38.3554 27.5037C38.423 27.5171 38.4871 27.5441 38.5439 27.5832C38.6006 27.6223 38.6487 27.6726 38.6853 27.7309C38.7918 27.874 38.9045 28.014 39.008 28.1541Z" fill="url(#paint12_linear_1504_6603)"/>
<path id="Vector_14" d="M27.422 29.5595H25.833V20.3206C26.0758 20.3105 26.319 20.3187 26.5606 20.3449C26.6782 20.3666 26.7864 20.4237 26.8707 20.5086C26.955 20.5934 27.0114 20.702 27.0324 20.8198C27.1268 21.1607 27.2029 21.5078 27.2881 21.8548C27.8969 20.3632 29.8086 19.9979 31.1024 20.5885C31.033 20.8984 30.9435 21.2034 30.8345 21.5017C30.7493 21.7087 30.6275 21.7757 30.3596 21.7361C29.9424 21.6658 29.5147 21.6908 29.1085 21.8091C28.6184 21.9512 28.1888 22.2511 27.8866 22.6623C27.5845 23.0735 27.4265 23.5729 27.4373 24.0831V29.5625L27.422 29.5595Z" fill="url(#paint13_linear_1504_6603)"/>
<path id="Vector_15" d="M107.092 22.7679C107.092 24.2899 106.891 25.5471 106.252 26.7252C105.308 28.4725 103.741 29.5045 101.597 29.8576C100.101 30.1285 98.5589 29.994 97.1318 29.468C96.3159 29.1857 95.5744 28.7226 94.9629 28.1132C94.3514 27.5038 93.8856 26.7639 93.6006 25.949C93.2097 24.8194 93.0523 23.6222 93.1379 22.43C93.1667 21.3405 93.4448 20.2721 93.9507 19.3067C94.9035 17.5381 96.4803 16.4665 98.6538 16.0982C100.247 15.7997 101.893 15.9907 103.375 16.6461C104.161 16.9842 104.865 17.488 105.438 18.1232C106.011 18.7584 106.441 19.51 106.696 20.3265C106.96 21.1134 107.094 21.938 107.092 22.7679ZM103.57 22.9992C103.578 22.6727 103.562 22.3461 103.521 22.0221C103.464 21.2277 103.228 20.4566 102.83 19.7664C102.078 18.5274 100.715 18.0982 99.2901 18.3965C98.8152 18.4938 98.372 18.7075 98.0001 19.0183C97.6282 19.3291 97.3392 19.7273 97.1592 20.1773C96.8622 20.8605 96.6979 21.594 96.6752 22.3386C96.5621 23.4814 96.7109 24.6349 97.1105 25.7115C97.6828 27.1149 98.9369 27.8028 100.584 27.6171C101.106 27.5769 101.608 27.3968 102.036 27.0958C102.465 26.7948 102.804 26.3839 103.019 25.9063C103.416 24.9903 103.602 23.9968 103.564 22.9992H103.57Z" fill="url(#paint14_linear_1504_6603)"/>
<path id="Vector_16" d="M126.198 26.4794C126.584 27.0486 126.946 27.5844 127.315 28.114C127.388 28.2206 127.315 28.2571 127.266 28.3089C126.742 29.0067 126.006 29.5162 125.169 29.7609C123.903 30.1622 122.531 30.053 121.345 29.4565C120.666 29.1232 120.083 28.6225 119.651 28.0015C119.219 27.3805 118.953 26.6597 118.877 25.9071C118.52 23.3835 119.714 20.9847 122.039 20.2815C122.626 20.0882 123.246 20.0195 123.86 20.0798C124.475 20.1401 125.07 20.328 125.607 20.6316C126.724 21.2587 127.394 22.2876 127.634 23.6757C127.702 24.1485 127.734 24.6258 127.729 25.1034C127.729 25.2587 127.701 25.3043 127.561 25.3013C126.435 25.3013 125.312 25.3013 124.185 25.3013C123.336 25.3013 122.484 25.3013 121.634 25.3013C121.51 25.3013 121.464 25.3226 121.479 25.4809C121.495 25.8694 121.614 26.2468 121.824 26.5739C122.034 26.9009 122.328 27.1657 122.676 27.3408C123.845 27.9497 125.135 27.6909 126.085 26.6407C126.127 26.59 126.164 26.5361 126.198 26.4794ZM123.318 23.9284C123.848 23.9284 124.377 23.9284 124.904 23.9284C125.013 23.9284 125.062 23.9071 125.047 23.767C125.041 23.4927 124.964 23.2246 124.823 22.9891C124.682 22.7537 124.482 22.5591 124.243 22.4246C123.929 22.2642 123.574 22.1996 123.224 22.2389C122.828 22.2812 122.457 22.4498 122.166 22.7196C121.874 22.9894 121.677 23.346 121.604 23.7366C121.571 23.8797 121.58 23.9314 121.729 23.9284C122.259 23.9223 122.788 23.9284 123.318 23.9284Z" fill="url(#paint15_linear_1504_6603)"/>
<path id="Vector_17" d="M111.05 21.4652C111.324 21.0539 111.69 20.712 112.119 20.4667C112.752 20.1405 113.463 19.9963 114.174 20.05C114.884 20.1038 115.566 20.3534 116.143 20.7712C116.494 21.0485 116.776 21.404 116.966 21.8093C117.155 22.2146 117.248 22.6586 117.236 23.106C117.236 25.2673 117.236 27.4317 117.236 29.593C117.236 29.7422 117.172 29.7452 117.059 29.7452C116.146 29.7452 115.233 29.7452 114.319 29.7452C114.319 27.8183 114.319 25.8914 114.319 23.9614C114.323 23.7569 114.303 23.5527 114.262 23.3526C114.055 22.4119 113.288 22.1349 112.481 22.208C112.265 22.2241 112.054 22.2846 111.863 22.3857C111.671 22.4867 111.502 22.6263 111.367 22.7955C111.165 23.0365 111.056 23.3425 111.062 23.657C111.062 25.6722 111.062 27.6874 111.062 29.6995C111.062 29.7108 111.058 29.7217 111.05 29.7297C111.042 29.7377 111.031 29.7422 111.02 29.7422C110.067 29.7422 109.111 29.7422 108.158 29.7422C108.158 26.6433 108.158 23.3495 108.158 20.2628H108.344C109.237 20.2628 110.129 20.2628 111.02 20.2628C111.032 20.6798 111.05 21.0756 111.05 21.4652Z" fill="url(#paint16_linear_1504_6603)"/>
</g>
<defs>
<linearGradient id="paint0_linear_1504_6603" x1="84.6602" y1="-0.338589" x2="84.4867" y2="28.2244" gradientUnits="userSpaceOnUse">
<stop offset="0.01" stop-color="#FDC617"/>
<stop offset="1" stop-color="#EC8646"/>
</linearGradient>
<linearGradient id="paint1_linear_1504_6603" x1="80.6451" y1="-0.363061" x2="80.4746" y2="28.1999" gradientUnits="userSpaceOnUse">
<stop offset="0.01" stop-color="#FDC617"/>
<stop offset="1" stop-color="#EC8646"/>
</linearGradient>
<linearGradient id="paint2_linear_1504_6603" x1="90.9463" y1="-0.299843" x2="90.7758" y2="28.2601" gradientUnits="userSpaceOnUse">
<stop offset="0.01" stop-color="#FDC617"/>
<stop offset="1" stop-color="#EC8646"/>
</linearGradient>
<linearGradient id="paint3_linear_1504_6603" x1="73.4796" y1="-0.403741" x2="73.3092" y2="28.1592" gradientUnits="userSpaceOnUse">
<stop offset="0.01" stop-color="#FDC617"/>
<stop offset="1" stop-color="#EC8646"/>
</linearGradient>
<linearGradient id="paint4_linear_1504_6603" x1="87.9295" y1="-0.31738" x2="87.759" y2="28.2425" gradientUnits="userSpaceOnUse">
<stop offset="0.01" stop-color="#FDC617"/>
<stop offset="1" stop-color="#EC8646"/>
</linearGradient>
<linearGradient id="paint5_linear_1504_6603" x1="96.3344" y1="-0.270518" x2="96.1609" y2="28.2924" gradientUnits="userSpaceOnUse">
<stop offset="0.01" stop-color="#FDC617"/>
<stop offset="1" stop-color="#EC8646"/>
</linearGradient>
<linearGradient id="paint6_linear_1504_6603" x1="7.02334" y1="15.8058" x2="7.25469" y2="30.9929" gradientUnits="userSpaceOnUse">
<stop offset="0.01" stop-color="#25A8E0"/>
<stop offset="1" stop-color="#208DCA"/>
</linearGradient>
<linearGradient id="paint7_linear_1504_6603" x1="44.183" y1="15.2429" x2="44.4113" y2="30.43" gradientUnits="userSpaceOnUse">
<stop offset="0.01" stop-color="#25A8E0"/>
<stop offset="1" stop-color="#208DCA"/>
</linearGradient>
<linearGradient id="paint8_linear_1504_6603" x1="19.9397" y1="15.609" x2="20.171" y2="30.7961" gradientUnits="userSpaceOnUse">
<stop offset="0.01" stop-color="#25A8E0"/>
<stop offset="1" stop-color="#208DCA"/>
</linearGradient>
<linearGradient id="paint9_linear_1504_6603" x1="53.312" y1="15.105" x2="53.5433" y2="30.2921" gradientUnits="userSpaceOnUse">
<stop offset="0.01" stop-color="#25A8E0"/>
<stop offset="1" stop-color="#208DCA"/>
</linearGradient>
<linearGradient id="paint10_linear_1504_6603" x1="62.9132" y1="14.9597" x2="63.1445" y2="30.1468" gradientUnits="userSpaceOnUse">
<stop offset="0.01" stop-color="#25A8E0"/>
<stop offset="1" stop-color="#208DCA"/>
</linearGradient>
<linearGradient id="paint11_linear_1504_6603" x1="71.0744" y1="14.8373" x2="71.3058" y2="30.0244" gradientUnits="userSpaceOnUse">
<stop offset="0.01" stop-color="#25A8E0"/>
<stop offset="1" stop-color="#208DCA"/>
</linearGradient>
<linearGradient id="paint12_linear_1504_6603" x1="35.1024" y1="15.381" x2="35.3307" y2="30.5681" gradientUnits="userSpaceOnUse">
<stop offset="0.01" stop-color="#25A8E0"/>
<stop offset="1" stop-color="#208DCA"/>
</linearGradient>
<linearGradient id="paint13_linear_1504_6603" x1="28.314" y1="15.4804" x2="28.5453" y2="30.6675" gradientUnits="userSpaceOnUse">
<stop offset="0.01" stop-color="#25A8E0"/>
<stop offset="1" stop-color="#208DCA"/>
</linearGradient>
<linearGradient id="paint14_linear_1504_6603" x1="100.015" y1="29.5806" x2="100.13" y2="21.0662" gradientUnits="userSpaceOnUse">
<stop offset="0.01" stop-color="#16619D"/>
<stop offset="1" stop-color="#0C6BB3"/>
</linearGradient>
<linearGradient id="paint15_linear_1504_6603" x1="123.208" y1="29.8918" x2="123.321" y2="21.3774" gradientUnits="userSpaceOnUse">
<stop offset="0.01" stop-color="#16619D"/>
<stop offset="1" stop-color="#0C6BB3"/>
</linearGradient>
<linearGradient id="paint16_linear_1504_6603" x1="112.648" y1="29.7483" x2="112.761" y2="21.2339" gradientUnits="userSpaceOnUse">
<stop offset="0.01" stop-color="#16619D"/>
<stop offset="1" stop-color="#0C6BB3"/>
</linearGradient>
</defs>
</svg>
