<svg width="152" height="30" viewBox="0 0 152 30" fill="none" xmlns="http://www.w3.org/2000/svg">
<g id="Group 34371">
<path id="Vector" d="M13.9329 1.16794C12.8363 0.564976 11.5478 0.263254 10.0678 0.263254H0.52832V23.2895H4.673V14.4573H10.0678C11.5478 14.4573 12.8363 14.1559 13.9329 13.5527C15.0292 12.9499 15.868 12.1136 16.4493 11.0444C17.0301 9.97545 17.3211 8.7501 17.3211 7.36853C17.3211 5.98722 17.0301 4.75905 16.4493 3.68435C15.868 2.60981 15.0292 1.77106 13.9329 1.16794ZM12.7487 9.15309C12.4963 9.68505 12.1098 10.1072 11.5891 10.4195C11.0682 10.7323 10.4131 10.8883 9.62367 10.8883H4.673V3.83236H9.62367C10.7858 3.83236 11.6603 4.16436 12.247 4.82747C12.8335 5.49098 13.127 6.33801 13.127 7.36853C13.127 8.02667 13.0008 8.62136 12.7487 9.15309ZM47.5772 6.71064L40.6365 25.9212C40.132 27.3245 39.4687 28.3551 38.6463 29.0132C37.824 29.6708 36.7986 30 35.5707 30H33.459V26.7929H35.2746C35.8446 26.7929 36.3162 26.5926 36.6891 26.1925C37.0618 25.7921 37.7198 24.0953 37.8845 23.5528L31.7385 6.71064H35.7516L39.7318 18.6021C39.995 17.6265 43.6352 6.71064 43.6352 6.71064H47.5772ZM59.7153 15.0906C60.4168 15.7978 60.7679 16.8808 60.7679 18.3389C60.7679 19.3479 60.5019 20.247 59.9702 21.0363C59.4382 21.826 58.7228 22.4427 57.8238 22.8866C56.9246 23.3304 55.9486 23.5528 54.8962 23.5528H53.5475C52.462 23.5528 51.4505 23.344 50.513 22.9276C49.5755 22.5113 48.8143 21.9357 48.2844 21.1185C47.7394 20.2781 47.4836 19.1561 47.462 18.1251H51.2778C51.3433 18.794 51.4605 19.6227 51.9275 20.0166C52.453 20.46 52.9773 20.5757 53.5804 20.5757H54.6988C55.3125 20.5757 55.8281 20.4226 56.2449 20.1152C56.6615 19.8084 56.8699 19.3314 56.8699 18.6843C56.8699 18.1362 56.7108 17.7114 56.3929 17.4096C56.0747 17.1082 55.587 16.8971 54.9291 16.7764L51.7548 16.1515C50.4279 15.8882 49.4164 15.3537 48.7202 14.5478C48.0238 13.7419 47.6758 12.7196 47.6758 11.4804C47.6758 10.5156 47.9333 9.64931 48.4488 8.88172C48.9641 8.11428 49.6549 7.52217 50.5212 7.10536C51.3873 6.6888 52.3193 6.48031 53.3172 6.48031H54.5837C55.5924 6.48031 56.5299 6.68334 57.3962 7.0889C58.2622 7.49494 58.9641 8.06779 59.5014 8.80768C60.0386 9.54805 60.3181 10.8939 60.3402 11.8586H56.6232C56.579 11.2887 56.4813 10.4784 56.0069 10.0261C55.5529 9.59313 55.0658 9.44092 54.5179 9.44092H53.4489C52.8894 9.44092 52.4291 9.59181 52.0673 9.89322C51.7054 10.1949 51.5245 10.6087 51.5245 11.135C51.5245 11.5626 51.6751 11.9357 51.9768 12.2534C52.278 12.5715 52.7195 12.7908 53.3008 12.9112L56.5409 13.5857C57.9552 13.8819 59.0134 14.3833 59.7153 15.0906ZM76.0177 19.63C75.8861 19.4494 75.8203 19.1725 75.8203 18.7994V12.6317C75.8203 11.4804 75.5733 10.4306 75.0801 9.48203C74.5865 8.53374 73.8739 7.7908 72.942 7.25345C72.0097 6.71627 70.9134 6.44755 69.6525 6.44755H68.4519C67.3333 6.44755 66.2917 6.68053 65.3269 7.14648C64.3619 7.61268 63.5725 8.27314 62.9585 9.12835C62.3443 9.98364 62.0919 10.7623 62.0045 11.8586H65.8697C65.9244 11.0913 66.0997 10.6527 66.5933 10.2139C67.0865 9.77551 67.7282 9.58892 68.4519 9.58892H69.6525C70.0692 9.58892 70.4584 9.7126 70.8203 9.95899C71.1822 10.2059 71.4672 10.5511 71.6756 10.9951C71.8838 11.4392 71.9881 11.9358 71.9881 12.4837V12.8132L67.5967 13.4705C65.8311 13.7558 64.4195 14.3314 63.3614 15.1975C62.3032 16.0638 61.7743 17.248 61.7743 18.75C61.7743 19.7154 62.0017 20.5595 62.4568 21.283C62.9118 22.0069 63.556 22.5661 64.3894 22.9607C65.2226 23.3551 66.1873 23.5528 67.2841 23.5528C68.457 23.5528 69.4934 23.3224 70.3927 22.8619C71.2916 22.4015 71.9549 21.7713 72.3828 20.9704C72.4265 21.771 72.6869 22.3577 73.164 22.7303C73.6408 23.1032 74.2905 23.2895 75.1131 23.2895H77.6953V20.0494C77.2016 20.0494 76.8315 20.0249 76.5851 19.9754C76.3382 19.9263 76.1492 19.8112 76.0177 19.63ZM71.9881 16.4146C71.9881 17.2262 71.8208 17.9445 71.4865 18.5692C71.1518 19.1944 70.6802 19.6796 70.072 20.0248C69.4632 20.3704 68.7644 20.5429 67.975 20.5429C67.3057 20.5429 66.7576 20.3622 66.3302 20.0001C65.9023 19.6385 65.6888 19.1669 65.6888 18.5856C65.6888 17.8619 65.9272 17.3331 66.4042 16.9984C66.8812 16.6642 67.6182 16.4092 68.6164 16.2336L71.9881 15.6087V16.4146ZM33.6071 20.0494C33.1133 20.0494 32.7432 20.0249 32.4969 19.9754C32.2499 19.9263 32.0609 19.8112 31.9294 19.63C31.7978 19.4494 31.732 19.1725 31.732 18.7994V12.6317C31.732 11.4804 31.485 10.4306 30.9919 9.48203C30.4982 8.53374 29.7856 7.7908 28.8537 7.25345C27.9214 6.71627 26.8251 6.44755 25.5642 6.44755H24.3636C23.245 6.44755 22.2034 6.68053 21.2386 7.14648C20.2736 7.61268 19.4842 8.27314 18.8702 9.12835C18.256 9.98364 18.0036 10.7623 17.9162 11.8586H21.7814C21.8361 11.0913 22.0114 10.6527 22.5051 10.2139C22.9982 9.77551 23.64 9.58892 24.3636 9.58892H25.5642C25.9809 9.58892 26.3701 9.7126 26.732 9.95899C27.0939 10.2059 27.3789 10.5511 27.5873 10.9951C27.7955 11.4392 27.8998 11.9358 27.8998 12.4837V12.8132L23.5084 13.4705C21.7428 13.7558 20.3312 14.3314 19.2731 15.1975C18.2149 16.0638 17.686 17.248 17.686 18.75C17.686 19.7154 17.9134 20.5595 18.3685 21.283C18.8235 22.0069 19.4677 22.5661 20.3011 22.9607C21.1343 23.3551 22.099 23.5528 23.1958 23.5528C24.3688 23.5528 25.4051 23.3224 26.3044 22.8619C27.2034 22.4015 27.8666 21.7713 28.2945 20.9704C28.3382 21.771 28.5986 22.3577 29.0758 22.7303C29.5525 23.1032 30.2022 23.2895 31.0248 23.2895H33.6071V20.0494ZM27.8998 16.4146C27.8998 17.2262 27.7325 17.9445 27.3982 18.5692C27.0635 19.1944 26.592 19.6796 25.9837 20.0248C25.3749 20.3704 24.6761 20.5429 23.8867 20.5429C23.2174 20.5429 22.6693 20.3622 22.2419 20.0001C21.814 19.6385 21.6005 19.1669 21.6005 18.5856C21.6005 17.8619 21.8389 17.3331 22.3159 16.9984C22.7929 16.6642 23.5299 16.4092 24.5281 16.2336L27.8998 15.6087V16.4146ZM88.2116 9.91787H83.705V23.2895H79.8399V9.91787H76.6162V6.71064H79.8399V5.14815C79.8399 3.55834 80.24 2.34696 81.0405 1.51327C81.8408 0.680142 82.9646 0.263254 84.4122 0.263254H88.2116V3.47056H85.58C84.9439 3.47056 84.4724 3.63785 84.1655 3.97217C83.8582 4.30674 83.705 4.8192 83.705 5.51002V6.71064H88.2116V9.91787ZM100.07 7.51663C99.039 6.80412 97.8767 6.44755 96.583 6.44755H95.3165C94.0884 6.44755 92.9232 6.79569 91.8215 7.49189C90.7192 8.18833 89.8283 9.18907 89.1488 10.4935C88.4688 11.7985 88.1291 13.2842 88.1291 14.9508C88.1291 16.6066 88.4442 18.0897 89.0747 19.3997C89.7052 20.7101 90.5769 21.7299 91.6899 22.459C92.8027 23.1883 94.0337 23.5528 95.3824 23.5528H96.5994C97.7506 23.5528 98.8116 23.3003 99.782 22.7961C100.752 22.2919 101.55 21.5983 102.175 20.7155C102.8 19.8331 103.167 18.8487 103.277 17.7632H99.5928C99.4502 18.4869 99.1077 19.093 98.5649 19.5807C98.0221 20.069 97.3776 20.3125 96.6323 20.3125H95.4152C94.7792 20.3125 94.2007 20.0908 93.6801 19.6465C93.1591 19.2027 92.7451 18.5666 92.4382 17.7386C92.2261 17.1673 92.0892 16.5331 92.0237 15.8389H103.359C103.372 15.7237 103.425 14.7919 103.425 14.408C103.425 12.9609 103.123 11.6286 102.52 10.4113C101.917 9.19445 101.1 8.22945 100.07 7.51663ZM92.1692 12.9935C92.2465 12.6459 92.347 12.3169 92.4712 12.0067C92.7999 11.1846 93.2303 10.5595 93.7623 10.1317C94.2937 9.70433 94.8504 9.49031 95.4317 9.49031H96.583C97.0983 9.49031 97.5806 9.64394 98.0303 9.9508C98.4798 10.2581 98.8389 10.6827 99.1077 11.2255C99.3759 11.7682 99.5214 12.3577 99.5435 12.9935H92.1692ZM151.472 11.9011V11.915C151.472 12.0435 151.421 12.1668 151.331 12.2577L139.843 23.7451C139.798 23.7905 139.736 23.816 139.672 23.816H139.599C139.465 23.816 139.357 23.7075 139.357 23.5737V11.915C139.357 12.0435 139.306 12.1668 139.215 12.2577L127.798 23.6741C127.708 23.765 127.584 23.816 127.456 23.816H127.442C127.313 23.816 127.19 23.765 127.099 23.6741L115.683 12.2577C115.592 12.1668 115.541 12.0435 115.541 11.915V11.9011C115.541 11.7725 115.592 11.6493 115.683 11.5584L127.099 0.141948C127.19 0.0510576 127.313 0 127.442 0H127.456C127.584 4.52832e-06 127.708 0.0510621 127.798 0.141948L139.215 11.5584C139.306 11.6493 139.357 11.7725 139.357 11.9011V0.242317C139.357 0.108491 139.465 6.15e-09 139.599 4.53447e-06H139.672C139.736 4.53447e-06 139.798 0.0255337 139.843 0.0709762L151.331 11.5584C151.421 11.6493 151.472 11.7725 151.472 11.9011Z" fill="#5A28FF"/>
</g>
</svg>
