<svg width="112" height="30" viewBox="0 0 112 30" fill="none" xmlns="http://www.w3.org/2000/svg">
<g id="Group 34385">
<path id="Subtract" fill-rule="evenodd" clip-rule="evenodd" d="M38.9735 7.89027C38.8453 7.96713 38.7683 10.8108 38.794 14.1669C38.8453 19.9825 38.8709 20.2643 39.3581 20.5205C39.7 20.6912 40.0418 20.6912 40.3837 20.5205C40.8196 20.2899 40.8965 20.0081 40.8965 18.3428V16.4214C43.7683 16.4214 45.0504 16.2933 45.5888 16.1652C46.1017 16.0115 46.9222 15.576 47.3581 15.1917C47.8196 14.7818 48.3581 14.0645 48.5632 13.5777C48.794 13.0141 48.8709 12.2711 48.7683 11.4257C48.6914 10.7084 48.4094 9.86294 48.1529 9.50427C47.8709 9.1456 47.1529 8.6076 46.5119 8.27456C45.5376 7.78779 44.9991 7.71094 42.2812 7.71094C40.5888 7.71094 39.1017 7.78779 38.9735 7.89027ZM83.076 7.89027C82.9478 7.96713 82.8709 10.7596 82.8965 14.0901C82.9222 19.2651 82.9735 20.1874 83.3324 20.5205C83.6658 20.8279 83.8453 20.8535 84.3581 20.5717C84.9478 20.2899 84.9991 20.1362 84.9991 18.3428V16.4214C88.9222 16.3189 89.7427 16.1652 90.5119 15.7553C91.076 15.4735 91.8196 14.833 92.1273 14.3463C92.6401 13.6033 92.7171 13.219 92.6401 11.7587C92.5632 10.2728 92.4606 9.93979 91.794 9.22246C91.3837 8.78694 90.6401 8.24894 90.1786 8.0696C89.6401 7.83903 88.3324 7.71094 86.3324 7.71094C84.6658 7.71094 83.2042 7.78779 83.076 7.89027ZM49.8965 15.909C49.794 12.5017 49.8453 11.4001 50.1017 11.1439C50.2812 10.9389 50.6401 10.7852 50.8709 10.7852C51.1017 10.7852 51.435 10.9133 51.6145 11.0926C51.794 11.272 51.9222 11.7075 51.9222 12.0662C51.9222 12.681 51.9478 12.681 52.8196 11.7331C53.5376 10.9646 53.8709 10.7852 54.5376 10.8365C55.2812 10.9133 55.3837 11.0158 55.435 11.7331C55.5119 12.4505 55.4094 12.6298 54.794 12.8347C54.4094 12.9885 53.8196 13.2446 53.4863 13.424C53.1529 13.5777 52.7171 14.0901 52.4863 14.5C52.2555 14.9611 52.0247 16.2677 51.9478 17.8048C51.8196 19.8287 51.7171 20.3924 51.3324 20.6229C51.0247 20.8279 50.7683 20.8279 50.435 20.6229C50.0504 20.3667 49.9735 19.7775 49.8965 15.909ZM58.1786 11.272C57.6145 11.5538 56.8196 12.2199 56.4606 12.7579C55.9991 13.3984 55.7171 14.2182 55.6145 15.1405C55.5119 15.9346 55.5632 16.9338 55.7171 17.4462C55.8709 17.9329 56.2299 18.6503 56.5376 19.0345C56.8196 19.4445 57.5376 20.0081 58.1273 20.2899C58.9991 20.7254 59.5888 20.8279 60.9478 20.751C62.1786 20.6742 62.8453 20.4948 63.3837 20.1105C63.7683 19.8031 64.1273 19.2907 64.1786 18.9577C64.2299 18.5734 64.1017 18.266 63.8709 18.1379C63.6145 18.0354 63.1273 18.1635 62.6145 18.4709C62.1273 18.7784 61.3324 18.9833 60.5632 18.9833C59.5632 18.9833 59.2299 18.8552 58.5888 18.2147C58.153 17.7792 57.8196 17.2668 57.8196 17.0619C57.8196 16.7545 58.3068 16.6776 60.6914 16.6776C62.2812 16.6776 63.8453 16.5751 64.1786 16.4726C64.5119 16.3702 64.8453 16.0627 64.8965 15.7809C64.9735 15.4991 64.9222 14.7818 64.7683 14.1669C64.6145 13.5777 64.1786 12.7323 63.7683 12.2711C63.3837 11.8356 62.6914 11.3232 62.2299 11.1183C61.794 10.9389 60.9222 10.7852 60.3068 10.7852C59.7171 10.7852 58.7683 11.0158 58.1786 11.272ZM66.5888 11.8356C66.8709 11.5026 67.3581 11.1183 67.6658 11.0158C67.9478 10.9133 68.7683 10.8108 69.4863 10.8108C70.2555 10.8108 71.2042 11.0158 71.8453 11.2976C72.5119 11.605 72.9478 11.9893 72.9478 12.2455C72.9735 12.5017 72.794 12.8604 72.5632 13.0141C72.2555 13.2959 71.9991 13.2703 71.2042 12.9628C70.6914 12.7323 69.8196 12.5786 69.2812 12.5786C68.6401 12.5786 68.2555 12.7323 68.1017 13.0141C67.9478 13.2959 67.9478 13.6546 68.1017 13.9107C68.2299 14.1669 69.1017 14.6281 70.0504 14.9355C71.1017 15.2686 72.076 15.7809 72.4863 16.2165C73.0247 16.7288 73.2042 17.19 73.2042 17.8817C73.2042 18.4197 73.0247 19.1114 72.8196 19.4188C72.6145 19.7519 72.076 20.1874 71.6658 20.3924C71.2555 20.5973 70.2299 20.7766 69.4094 20.7766C68.5632 20.7766 67.5376 20.5717 66.9222 20.2899C66.3581 20.0337 65.7427 19.675 65.5632 19.4701C65.4094 19.2651 65.3068 18.9321 65.3837 18.7271C65.435 18.5222 65.6658 18.266 65.8965 18.1379C66.1273 18.0354 66.6914 18.1635 67.3068 18.4709C67.8709 18.7527 68.8196 18.9833 69.4094 18.9833C70.1017 19.0089 70.6401 18.8552 70.8196 18.599C70.9991 18.3941 71.1273 18.0098 71.076 17.7536C71.0504 17.4718 70.435 17.1131 69.2299 16.6776C68.2299 16.3189 67.1786 15.8834 66.8453 15.7041C66.5376 15.5504 66.1786 15.038 66.0247 14.6281C65.8709 14.2182 65.8453 13.5521 65.9222 13.1422C66.0247 12.7579 66.3068 12.1686 66.5888 11.8356ZM75.5376 11.2207C75.076 11.4769 74.5119 11.9893 74.3324 12.3736C74.1273 12.7835 73.9735 13.4496 73.9735 13.8595C73.9735 14.3463 74.2299 14.8843 74.6658 15.371C75.1273 15.8322 75.9735 16.2677 76.9222 16.5495C77.7683 16.7801 78.6914 17.2156 78.9735 17.4718C79.3837 17.8561 79.435 18.061 79.2042 18.4197C78.9991 18.7271 78.5119 18.8808 77.6658 18.9321C76.7427 18.9833 76.1273 18.8296 75.3324 18.4197C74.3837 17.8817 74.2042 17.8817 73.8453 18.2147C73.6145 18.4197 73.435 18.804 73.4606 19.0345C73.4606 19.342 73.9478 19.7263 74.794 20.1362C75.7683 20.5973 76.5888 20.7766 77.6914 20.7766C78.717 20.7766 79.4863 20.6229 79.9991 20.3155C80.4094 20.0593 80.9222 19.5213 81.1017 19.0858C81.3068 18.6759 81.3837 17.9585 81.3068 17.4462C81.2299 16.9594 80.9735 16.3445 80.7171 16.114C80.4606 15.8578 79.4094 15.3454 78.3581 14.9611C77.3068 14.5512 76.3324 14.0645 76.1786 13.8083C75.9735 13.5008 75.9991 13.2959 76.2812 12.9628C76.5119 12.7323 77.0504 12.5529 77.6145 12.5786C78.153 12.5786 78.9735 12.7835 79.4606 13.0141C80.2555 13.424 80.3837 13.424 80.7683 13.0909C80.9991 12.886 81.1786 12.5017 81.1529 12.2455C81.1529 12.0149 80.7683 11.6306 80.3068 11.4001C79.8709 11.1695 78.794 10.9133 77.9478 10.8621C76.8196 10.7852 76.1786 10.8877 75.5376 11.2207ZM93.6145 11.8612C93.7683 11.6306 94.2812 11.2976 94.7683 11.1183C95.2555 10.9389 96.3324 10.8108 97.1786 10.8108C98.1529 10.7852 99.0247 10.9389 99.5888 11.2464C100.076 11.4769 100.717 12.0149 100.999 12.3992C101.461 13.0141 101.563 13.5777 101.64 16.3702C101.691 18.4709 101.64 19.8287 101.435 20.1874C101.256 20.5717 100.922 20.7766 100.512 20.7766C100.153 20.7766 99.717 20.5461 99.5376 20.2899C99.2299 19.8031 99.2042 19.8031 98.3324 20.2899C97.794 20.5973 96.9222 20.7766 96.1529 20.7766C95.3324 20.7766 94.5888 20.5973 94.0247 20.2643C93.5888 19.9825 93.1017 19.4701 92.9478 19.1114C92.794 18.7527 92.6914 18.061 92.6914 17.5743C92.6914 16.985 92.9222 16.3958 93.3324 15.909C93.717 15.4479 94.4094 15.038 95.0504 14.8586C95.6658 14.7049 96.8453 14.6281 97.7427 14.7306C99.2299 14.8843 99.3581 14.8586 99.3581 14.3719C99.3581 14.0901 99.1273 13.6289 98.8453 13.3471C98.5632 13.0653 98.0247 12.7579 97.6145 12.681C97.2299 12.5786 96.2812 12.6554 95.5119 12.8091C94.2812 13.0909 94.0504 13.0653 93.717 12.7323C93.435 12.3992 93.4094 12.1943 93.6145 11.8612ZM102.179 11.2976C101.973 11.7075 102.281 12.6298 103.845 16.1652C105.23 19.3164 105.717 20.6485 105.538 20.9816C105.435 21.2122 105.102 21.5196 104.845 21.6221C104.563 21.7245 103.999 21.7502 103.589 21.6477C103.05 21.5452 102.717 21.6221 102.486 21.9039C102.332 22.1344 102.23 22.5187 102.307 22.7493C102.358 23.0055 102.666 23.2873 102.999 23.3898C103.332 23.4923 103.973 23.5947 104.409 23.5947C104.871 23.5947 105.614 23.4154 106.025 23.2104C106.461 22.9799 107.025 22.365 107.332 21.7245C107.64 21.1353 108.691 18.7527 109.666 16.4214C110.64 14.0901 111.384 11.9637 111.358 11.7075C111.307 11.4513 111.102 11.0926 110.897 10.9389C110.614 10.734 110.358 10.734 109.999 10.9389C109.666 11.1183 109.025 12.3992 108.204 14.5768C107.486 16.4214 106.845 17.8561 106.768 17.7536C106.691 17.6511 106.05 16.1908 105.384 14.5C104.691 12.8091 104.025 11.272 103.871 11.0926C103.717 10.9133 103.332 10.7596 103.025 10.7852C102.717 10.7852 102.332 11.0158 102.179 11.2976ZM84.9992 9.76037V14.3718C87.7941 14.3718 88.8966 14.2181 89.2812 14.0131C89.6915 13.8338 90.0761 13.4751 90.1787 13.2446C90.3069 13.014 90.3838 12.3735 90.3838 11.8099C90.3838 10.9901 90.2556 10.6827 89.6659 10.2728C89.1018 9.83723 88.5889 9.73475 86.9736 9.76037H84.9992ZM40.8966 9.76037V14.3718C44.9223 14.3718 45.0761 14.3206 45.7941 13.6032C46.2812 13.0908 46.5377 12.5785 46.5377 12.0661C46.5377 11.6562 46.4607 11.1182 46.3325 10.8876C46.23 10.657 45.8454 10.2984 45.4351 10.119C45.0505 9.91408 43.9223 9.76037 42.8197 9.76037H40.8966ZM57.8453 14.6024C57.8453 14.3206 58.1787 13.7313 58.5889 13.3214C59.1274 12.7834 59.5633 12.5785 60.23 12.5785C60.9223 12.5785 61.3582 12.7834 61.9223 13.347C62.3582 13.7569 62.6915 14.3462 62.6915 14.628C62.6915 15.1147 62.512 15.1404 60.2556 15.1404C57.9479 15.1404 57.8197 15.1147 57.8453 14.6024ZM95.2556 16.8312C94.9479 17.2155 94.6915 17.5742 94.7171 17.6766C94.7171 17.7535 94.9479 18.1378 95.2556 18.5221C95.6402 19.0601 95.9736 19.2394 96.6659 19.2394C97.153 19.2394 97.9223 19.0601 98.3325 18.8551C98.7428 18.6502 99.1787 18.2146 99.2556 17.8816C99.3325 17.5742 99.3582 17.0874 99.3069 16.8056C99.23 16.3701 98.9992 16.2932 97.512 16.2164C95.9479 16.1395 95.7941 16.1907 95.2556 16.8312Z" fill="#FF0796"/>
<g id="Group 34384">
<rect id="Rectangle 5670" x="0.640625" width="30" height="30" rx="4.10256" fill="#FF0796"/>
<g id="Group 34383">
<path id="Vector" d="M7.30762 5.89909L9.74351 4.46443C11.0768 3.67024 12.3589 3.02976 12.564 3.081C12.7948 3.10662 15.4102 4.5669 23.8461 9.53699L23.7179 15.4038L13.3333 21.4498V26.8298L7.56403 23.3456L7.30762 5.89909Z" fill="#FFFEFE"/>
<g id="Vector_2">
<path d="M9.46136 6.15707C9.51265 6.05459 10.1537 5.59345 10.8716 5.13231C11.5896 4.69679 12.3075 4.3125 12.4357 4.3125C12.5639 4.3125 14.7947 5.54221 17.3588 7.05374C19.9229 8.56526 22.0511 9.84621 22.0511 9.92307C22.0511 9.99992 21.3332 10.4611 18.846 11.9214L14.1024 9.12888C11.487 7.61735 9.41008 6.25955 9.46136 6.15707Z" fill="#FF0796"/>
<path d="M8.71777 22.7326L8.74341 15.0213C8.76906 10.7941 8.84598 7.38678 8.94854 7.43802C9.02547 7.48926 9.82034 7.9504 12.3075 9.41069V16.9683C12.3075 22.8607 12.2306 24.5259 11.9998 24.5259C11.8203 24.5003 10.9998 24.116 8.71777 22.7326Z" fill="#FF0796"/>
<path d="M13.5383 14.9444C13.4101 14.9956 13.3332 13.9453 13.3332 12.6131C13.3332 11.2809 13.3844 10.1793 13.4614 10.1793C13.5383 10.1793 14.4101 10.666 15.4101 11.2553C16.4357 11.8701 17.2819 12.4337 17.3332 12.5362C17.3844 12.6643 16.5896 13.2279 15.5896 13.7915C14.5639 14.3808 13.6409 14.8932 13.5383 14.9444Z" fill="#FF0796"/>
<path d="M13.2562 16.4047L17.9742 13.6891L22.6921 10.9734L22.7691 12.6899C22.8032 13.8342 22.7178 14.5089 22.5126 14.7138C22.3332 14.8675 20.5639 15.9435 18.5896 17.0964C16.6152 18.2492 14.6152 19.4277 13.3332 20.1707L13.2562 16.4047Z" fill="#FF0796"/>
</g>
</g>
</g>
</g>
</svg>
