<svg width="112" height="30" xmlns="http://www.w3.org/2000/svg" viewBox="0 0 234.85 39.16"><defs><style>.cls-1{fill:#e7ea63;}.cls-1,.cls-2{stroke-width:0px;}.cls-2{fill:#033642;}</style></defs><g id="Layer_1-2"><rect class="cls-2" y="0" width="38.74" height="36.27" rx="9.4" ry="9.4"/><path class="cls-1" d="m28.63,18.65l-7.09,7.88c-.47.53-1.15.83-1.86.83h-5.67c-.48,0-.88-.39-.88-.88v-4.21c0-1.09.64-2.05,1.58-2.76.84-.64,1.99-1.15,2.49-2.04v8.11l6.31-6.76c.46-.49.45-1.26-.02-1.75l-6.29-6.45v3.42c0,1.09-.63,2.06-1.57,2.78-.84.64-1.99,1.15-2.5,2.05v-9.35c0-.33.27-.61.61-.61h6.05c.6,0,1.18.24,1.61.67l7.18,7.18c.51.52.53,1.34.05,1.88Z"/><path class="cls-2" d="m134.5,15.83c-.69-1.28-1.48-2.45-2.29-3.4-.87-.93-1.72-1.6-2.59-2.05-.97-.49-2.05-.85-3.22-1.03-1.17-.18-2.55-.26-4.07-.26-.91,0-1.94.12-3.02.36-1.09.28-2.05.67-2.88,1.21-.93.55-1.64,1.24-2.17,2.07-.57.85-.87,1.94-.87,3.2s.26,2.25.77,3.1c.49.81,1.15,1.46,1.96,1.96.85.53,1.76.91,2.69,1.17,1.11.3,2.04.49,2.88.61l2.79.4c.91.12,1.66.26,2.39.47,1.86.45,1.86,1.19,1.86,1.44,0,.53-.14.93-.47,1.22-.36.34-.73.57-1.28.79-.47.18-1.03.38-1.66.41-.59.08-1.11.14-1.58.14-1.96,0-3.44-.45-4.56-1.36-1.17-.95-2.07-2.33-2.71-4.11l-4.82,1.88c.93,2.61,2.47,4.7,4.6,6.2,2.07,1.5,4.6,2.27,7.49,2.27,1.05,0,2.17-.12,3.46-.36,1.11-.26,2.19-.67,3.28-1.3.99-.57,1.8-1.32,2.49-2.29.67-.95,1.01-2.11,1.01-3.54,0-1.21-.28-2.23-.79-3.02-.47-.75-1.15-1.38-1.96-1.92-.77-.47-1.64-.83-2.69-1.13-.97-.22-1.94-.43-2.9-.57-.45-.04-.93-.12-1.42-.2-.24-.04-.45-.06-.67-.1-.24-.02-.47-.06-.71-.08-.93-.14-1.72-.32-2.33-.51-1.26-.36-1.88-.89-1.88-1.66,0-.47.12-.81.36-1.05.26-.26.55-.47.93-.63.47-.16.89-.26,1.26-.28.45-.06.85-.06,1.22-.06h.02c1.05,0,1.96.06,2.77.14.73.12,1.4.34,2,.61.53.28,1.07.71,1.54,1.26.43.55.85,1.3,1.3,2.27l4.5-2.29Z"/><path class="cls-2" d="m153.5,18.12c-.45-.99-.87-1.72-1.32-2.27-.45-.55-.99-.99-1.54-1.26-.57-.28-1.24-.49-2-.61-.79-.08-1.7-.14-2.77-.14h-.02c-.38,0-.75,0-1.21.06-.38.02-.79.12-1.28.28-.36.16-.65.38-.91.63-.24.24-.36.57-.36,1.05,0,.77.61,1.3,1.86,1.66.63.2,1.42.38,2.35.51.24.02.47.06.71.08.22.04.43.06.65.1.51.08.97.16,1.44.2.97.14,1.94.36,2.88.57,1.05.3,1.94.65,2.71,1.13.81.53,1.46,1.17,1.96,1.92.51.79.77,1.82.77,3.02,0,1.42-.32,2.59-1.01,3.54-.69.97-1.5,1.72-2.47,2.29-1.09.63-2.17,1.05-3.3,1.3-1.28.24-2.39.36-3.44.36-2.88,0-5.41-.77-7.49-2.27-2.13-1.5-3.69-3.6-4.62-6.2l4.84-1.88c.63,1.78,1.52,3.16,2.69,4.11,1.13.91,2.63,1.36,4.58,1.36.47,0,.97-.06,1.56-.14.65-.04,1.22-.24,1.68-.41.53-.22.93-.45,1.26-.79.34-.3.49-.69.49-1.22,0-.26,0-.99-1.86-1.44-.73-.22-1.48-.36-2.41-.47l-2.77-.4c-.87-.12-1.78-.32-2.9-.61-.91-.26-1.82-.65-2.67-1.17-.83-.49-1.46-1.15-1.96-1.96-.51-.85-.79-1.9-.79-3.1,0-1.28.3-2.35.87-3.2.53-.83,1.24-1.52,2.19-2.07.81-.53,1.8-.93,2.88-1.21,1.09-.24,2.09-.36,3.02-.36,1.52,0,2.88.08,4.07.26,1.17.18,2.25.53,3.22,1.03.87.45,1.7,1.13,2.59,2.05.81.95,1.6,2.11,2.29,3.4l-4.5,2.29Z"/><path class="cls-2" d="m47.15,3.91h8.26c10,0,13.83,3.08,13.83,10.59s-3.83,10.47-13.68,10.47h-2.17v7.55h-6.24V3.91Zm9.37,15.57c4.43,0,6.36-1.42,6.36-5.1s-1.94-5.06-6.36-5.06h-3.12v10.16h3.12Z"/><path class="cls-2" d="m87.13,20.78c0-6.96,4.74-11.74,11.58-11.74,7.47,0,11.86,5.22,11.15,13.12h-16.72c.12,3.68,2.33,5.81,5.93,5.81,2.57,0,4.27-.95,5.1-2.81l5.49.67c-1.62,4.39-5.3,6.68-10.75,6.68-7.12,0-11.78-4.66-11.78-11.74Zm17.23-2.57c-.24-3-2.29-4.94-5.49-4.94s-5.26,1.74-5.61,4.94h11.11Z"/><path class="cls-2" d="m161.08,3.88l8.26.03c10,.04,13.82,3.14,13.79,10.65-.03,7.47-3.87,10.46-13.72,10.42h-2.17s-.03,7.54-.03,7.54l-6.24-.02.11-28.61Zm9.31,15.61c4.43.02,6.37-1.4,6.38-5.07.01-3.64-1.92-5.07-6.34-5.08h-3.12s-.04,10.14-.04,10.14h3.12Z"/><path class="cls-2" d="m184.62,20.73c.03-7.59,4.43-11.72,10.05-11.7,3.2.01,6.08,1.6,7.22,4.3v-3.83s6.02.02,6.02.02l-.09,22.57-6.01-.02v-3.68c-1.1,2.6-4.03,4.21-7.2,4.2-5.61-.02-10.02-4.27-9.99-11.86Zm17.43.07c.02-4.23-2.34-6.77-5.7-6.78-3.32-.01-5.7,2.47-5.72,6.73-.02,4.31,2.34,6.81,5.7,6.82,3.32.01,5.7-2.51,5.72-6.78Z"/><path class="cls-2" d="m219,31.71l-9.28-22.53,6.56.03,5.95,16.07,6.03-16.02,6.6.03-12.49,29.87-6.6-.03,3.23-7.42Z"/><path class="cls-2" d="m86.4,8.72v6.46c-.94-.31-2-.47-3.19-.47-.97,0-1.81.22-2.53.65-.72.44-1.27,1-1.64,1.69-.37.69-.56,1.37-.56,2.06v13.4h-6.79V9.1h6.79l-.42,3.75-1.03,5.44h.75c.13-2.78.78-5.12,1.97-7.03,1.18-1.91,2.75-2.86,4.68-2.86.75,0,1.4.11,1.97.33Z"/></g></svg>