<svg width="75" height="28" viewBox="0 0 75 28" fill="none" xmlns="http://www.w3.org/2000/svg">
<path id="Vector" d="M27.5011 17.1919V12.7227H33.4738V6.75001H27.5011V0.777344H21.5285V17.2056C21.5324 19.8614 22.5892 22.4072 24.4671 24.2852C26.345 26.1631 28.8909 27.2198 31.5467 27.2238H33.4874V21.2375H31.5467C30.4737 21.2375 29.4447 20.8113 28.686 20.0526C27.9273 19.2939 27.5011 18.2649 27.5011 17.1919ZM8.51707 14.8685L11.5376 20.3628C11.5866 20.4509 11.6117 20.5503 11.6105 20.6512C11.6093 20.752 11.5818 20.8508 11.5308 20.9378C11.4797 21.0248 11.4068 21.0969 11.3193 21.147C11.2318 21.1972 11.1327 21.2237 11.0319 21.2238H0.945312V27.1965H12.6993C16.8679 27.1965 19.5193 22.7272 17.5102 19.0644L14.4897 13.5837C14.4401 13.4946 14.415 13.3939 14.4167 13.2918C14.4185 13.1898 14.4472 13.0901 14.4999 13.0027C14.5526 12.9153 14.6275 12.8434 14.7169 12.7943C14.8063 12.7451 14.9071 12.7204 15.0091 12.7227H20.2301V6.75001H13.328C9.15944 6.75001 6.50795 11.2193 8.51707 14.8685ZM73.369 12.7227H74.8041V6.75001H73.533C71.8088 6.75064 70.107 7.1406 68.5545 7.89079C67.0021 8.64099 65.6391 9.73205 64.5672 11.0826C63.4963 9.73092 62.1335 8.63906 60.5808 7.88875C59.0281 7.13845 57.3258 6.74915 55.6013 6.75001H54.3303V12.7227H55.7654C57.0132 12.7229 58.2248 13.1419 59.2061 13.9126C60.1874 14.6833 60.8817 15.7611 61.1777 16.9732C60.8841 18.1867 60.1905 19.266 59.2086 20.0371C58.2268 20.8082 57.0138 21.2263 55.7654 21.2238H54.3303V16.7682C54.3285 14.003 53.2292 11.3516 51.2739 9.39635C49.3186 7.44107 46.6672 6.3418 43.902 6.33999C41.1368 6.3418 38.4854 7.44107 36.5301 9.39635C34.5749 11.3516 33.4756 14.003 33.4738 16.7682C33.4756 19.5334 34.5749 22.1848 36.5301 24.1401C38.4854 26.0954 41.1368 27.1947 43.902 27.1965H47.0592V21.2375H43.902C42.7204 21.2371 41.5874 20.7676 40.7519 19.9321C39.9164 19.0966 39.4468 17.9635 39.4465 16.7819C39.449 15.601 39.9192 14.4692 40.7542 13.6341C41.5893 12.7991 42.7211 12.3288 43.902 12.3263C45.0829 12.3288 46.2148 12.7991 47.0498 13.6341C47.8848 14.4692 48.3551 15.601 48.3576 16.7819V27.2101H55.615C57.3392 27.2095 59.041 26.8196 60.5935 26.0694C62.1459 25.3192 63.509 24.2281 64.5808 22.8776C65.6517 24.2292 67.0145 25.3211 68.5672 26.0714C70.1199 26.8217 71.8222 27.211 73.5467 27.2101H74.8177V21.2375H73.3827C72.1349 21.2373 70.9233 20.8183 69.9419 20.0476C68.9606 19.2769 68.2663 18.1991 67.9704 16.9869C68.2583 15.7719 68.9481 14.6897 69.9279 13.9157C70.9078 13.1418 72.1203 12.7214 73.369 12.7227Z" fill="#062333"/>
</svg>
