<svg width="64" height="64" viewBox="0 0 64 64" fill="none" xmlns="http://www.w3.org/2000/svg">
<path fill-rule="evenodd" clip-rule="evenodd" d="M4 31.0791C4 30.5268 4.44772 30.0791 5 30.0791H59.7413C60.2936 30.0791 60.7413 30.5268 60.7413 31.0791V56.9996C60.7413 57.5519 60.2936 57.9996 59.7413 57.9996H5C4.44772 57.9996 4 57.5519 4 56.9996V31.0791ZM6 32.0791V55.9996H58.7413V32.0791H6Z" fill="#006FFF"/>
<path fill-rule="evenodd" clip-rule="evenodd" d="M30.8999 40.4933C28.9412 41.3046 28.0111 43.5501 28.8224 45.5088C29.6337 47.4675 31.8792 48.3976 33.8379 47.5863C35.7966 46.775 36.7267 44.5294 35.9154 42.5708C35.1041 40.6121 32.8585 39.682 30.8999 40.4933ZM26.9746 46.2741C25.7406 43.295 27.1553 39.8795 30.1345 38.6455C33.1137 37.4115 36.5291 38.8262 37.7631 41.8054C38.9972 44.7846 37.5824 48.2 34.6033 49.434C31.6241 50.668 28.2086 49.2533 26.9746 46.2741Z" fill="#006FFF"/>
<path fill-rule="evenodd" clip-rule="evenodd" d="M16.2568 36.2217C16.2568 35.6694 16.7045 35.2217 17.2568 35.2217H47.4886C48.0409 35.2217 48.4886 35.6694 48.4886 36.2217C48.4886 37.7435 49.7 38.9867 51.2199 39.0274C51.2197 39.0274 51.2202 39.0274 51.2199 39.0274L51.6988 39.0393C52.2413 39.0527 52.6741 39.4963 52.6741 40.039V47.1414C52.6741 47.6885 52.2344 48.1341 51.6874 48.1413C49.9112 48.165 48.4862 49.6103 48.4862 51.3839V51.7585C48.4894 51.7908 48.491 51.8235 48.491 51.8566C48.491 52.4089 48.0433 52.8566 47.491 52.8566H17.2591C16.7069 52.8566 16.2591 52.4089 16.2591 51.8566V51.3839C16.2591 49.6107 14.8321 48.165 13.058 48.1413C12.5109 48.1341 12.0713 47.6885 12.0713 47.1414V40.039C12.0713 39.4963 12.5041 39.0527 13.0465 39.0393L13.5246 39.0274C13.5244 39.0274 13.5249 39.0274 13.5246 39.0274C15.0445 38.9867 16.2568 37.7435 16.2568 36.2217ZM46.5124 50.8566H18.2329C18.0036 48.5638 16.2951 46.7027 14.0713 46.2477V40.9885C16.1059 40.7257 17.7349 39.1953 18.1526 37.2217H46.5928C47.0104 39.1953 48.6394 40.7257 50.6741 40.9885V46.2475C48.4486 46.7024 46.7415 48.5638 46.5124 50.8566Z" fill="#006FFF"/>
<path fill-rule="evenodd" clip-rule="evenodd" d="M15.5667 13.1907C15.8174 13.104 16.0922 13.1204 16.3307 13.2364L44.5554 26.9567C45.0521 27.1982 45.259 27.7966 45.0175 28.2933C44.7761 28.79 44.1777 28.9969 43.681 28.7555L16.3557 15.4723L10.6857 27.1365C10.4443 27.6332 9.84588 27.8401 9.34917 27.5987C8.85246 27.3572 8.64554 26.7588 8.88699 26.2621L14.9942 13.6986C15.1101 13.46 15.3161 13.2773 15.5667 13.1907Z" fill="#006FFF"/>
<path fill-rule="evenodd" clip-rule="evenodd" d="M32.2628 6.28674C32.6567 5.89967 33.2898 5.90517 33.6769 6.29904L52.8726 25.8297C53.2597 26.2235 53.2542 26.8567 52.8603 27.2438C52.4664 27.6309 51.8333 27.6255 51.4462 27.2316L32.9514 8.4141L27.0847 14.1791C26.6908 14.5662 26.0576 14.5607 25.6705 14.1668C25.2834 13.7728 25.289 13.1397 25.6829 12.7526L32.2628 6.28674Z" fill="#006FFF"/>
</svg>
