<svg width="64" height="64" viewBox="0 0 64 64" fill="none" xmlns="http://www.w3.org/2000/svg">
<path fill-rule="evenodd" clip-rule="evenodd" d="M5.91304 13C4.19737 13 3 14.2219 3 15.5035V48.2024C3 49.4839 4.19737 50.7059 5.91304 50.7059H58.087C59.8026 50.7059 61 49.4839 61 48.2024V15.5035C61 14.2219 59.8026 13 58.087 13H5.91304ZM1 15.5035C1 12.9152 3.30649 11 5.91304 11H58.087C60.6935 11 63 12.9152 63 15.5035V48.2024C63 50.7907 60.6935 52.7059 58.087 52.7059H5.91304C3.30649 52.7059 1 50.7907 1 48.2024V15.5035Z" fill="#006FFF"/>
<path fill-rule="evenodd" clip-rule="evenodd" d="M1 18.4346C1 17.8823 1.44772 17.4346 2 17.4346H61.6886C62.2409 17.4346 62.6886 17.8823 62.6886 18.4346C62.6886 18.9869 62.2409 19.4346 61.6886 19.4346H2C1.44772 19.4346 1 18.9869 1 18.4346Z" fill="#006FFF"/>
<path fill-rule="evenodd" clip-rule="evenodd" d="M1 25.7549C1 25.2026 1.44772 24.7549 2 24.7549H61.6886C62.2409 24.7549 62.6886 25.2026 62.6886 25.7549C62.6886 26.3072 62.2409 26.7549 61.6886 26.7549H2C1.44772 26.7549 1 26.3072 1 25.7549Z" fill="#006FFF"/>
<path fill-rule="evenodd" clip-rule="evenodd" d="M14.9717 44.2178H56.4942V46.2178H14.9717V44.2178Z" fill="#006FFF"/>
<path fill-rule="evenodd" clip-rule="evenodd" d="M52.6035 39.0264H55.1987V41.0264H52.6035V39.0264Z" fill="#006FFF"/>
<path fill-rule="evenodd" clip-rule="evenodd" d="M47.4111 39.0264H50.0063V41.0264H47.4111V39.0264Z" fill="#006FFF"/>
<path fill-rule="evenodd" clip-rule="evenodd" d="M42.2275 39.0264H44.8227V41.0264H42.2275V39.0264Z" fill="#006FFF"/>
</svg>
