<svg width="37" height="62" viewBox="0 0 37 62" fill="none" xmlns="http://www.w3.org/2000/svg">
<g id="Group 34351">
<path id="Vector (Stroke)" fill-rule="evenodd" clip-rule="evenodd" d="M0 6.4378C0 2.88228 2.88228 0 6.4378 0H30.0873C33.6428 0 36.5251 2.88228 36.5251 6.4378V55.9132C36.5251 56.4655 36.0774 56.9132 35.5251 56.9132C34.9728 56.9132 34.5251 56.4655 34.5251 55.9132V6.4378C34.5251 3.98685 32.5382 2 30.0873 2H6.4378C3.98685 2 2 3.98685 2 6.4378V55.5622C2 58.0131 3.98685 60 6.4378 60H21.0411C21.5934 60 22.0411 60.4477 22.0411 61C22.0411 61.5523 21.5934 62 21.0411 62H6.4378C2.88228 62 0 59.1177 0 55.5622V6.4378Z" fill="#006FFF"/>
<path id="Vector (Stroke)_2" fill-rule="evenodd" clip-rule="evenodd" d="M15.9697 55.6777C15.9697 55.1254 16.4174 54.6777 16.9697 54.6777H19.5581C20.1104 54.6777 20.5581 55.1254 20.5581 55.6777C20.5581 56.23 20.1104 56.6777 19.5581 56.6777H16.9697C16.4174 56.6777 15.9697 56.23 15.9697 55.6777Z" fill="#006FFF"/>
<path id="Vector (Stroke)_3" fill-rule="evenodd" clip-rule="evenodd" d="M14.1582 6.23535C14.1582 5.68307 14.6059 5.23535 15.1582 5.23535H21.2557C21.808 5.23535 22.2557 5.68307 22.2557 6.23535C22.2557 6.78764 21.808 7.23535 21.2557 7.23535H15.1582C14.6059 7.23535 14.1582 6.78764 14.1582 6.23535Z" fill="#006FFF"/>
<path id="Vector (Stroke)_4" fill-rule="evenodd" clip-rule="evenodd" d="M35.5251 54.5625C36.0773 54.5625 36.5251 55.0102 36.5251 55.5625C36.5251 59.118 33.6428 62.0003 30.0872 62.0003H18.3799C17.8276 62.0003 17.3799 61.5526 17.3799 61.0003C17.3799 60.448 17.8276 60.0003 18.3799 60.0003H30.0872C32.5382 60.0003 34.5251 58.0135 34.5251 55.5625C34.5251 55.0102 34.9728 54.5625 35.5251 54.5625Z" fill="#006FFF"/>
</g>
</svg>
